<svg width="64" height="64" viewBox="0 0 64 64" fill="none" xmlns="http://www.w3.org/2000/svg">
<rect width="64" height="64" fill="#E3E5E8"/>
<g clip-path="url(#clip0_820_211)">
<path fill-rule="evenodd" clip-rule="evenodd" d="M52.6916 30.7119C52.6484 30.7214 52.6051 30.8257 52.6051 30.8825C52.5965 31.2618 52.5879 32.2668 52.5879 32.9494C52.5879 32.9684 52.6138 33.0063 52.6397 33.0063C52.7695 33.0158 53.0809 33.0252 53.3491 33.0252C53.7211 33.0252 53.9374 32.9684 54.0586 32.9116C54.37 32.7408 54.5171 32.3711 54.5171 31.9633C54.5171 31.0438 53.9288 30.6929 53.0549 30.6929C52.9944 30.6835 52.8215 30.6835 52.6916 30.7119ZM54.9237 34.9499C54.9237 34.0113 54.2921 33.4898 53.1502 33.4898C53.0983 33.4898 52.7349 33.4804 52.6483 33.4993C52.6224 33.5088 52.5879 33.5278 52.5879 33.5563C52.5879 34.2293 52.5792 35.3008 52.6051 35.7179C52.6224 35.898 52.7436 36.1541 52.8907 36.2299C53.0463 36.3247 53.4011 36.3436 53.6433 36.3436C54.3267 36.3436 54.9237 35.9265 54.9237 34.9499ZM50.9268 30.1905C51.0133 30.1905 51.2728 30.2189 51.9389 30.2189C52.5705 30.2189 53.0723 30.2 53.6865 30.2C54.4391 30.2 55.4773 30.4938 55.4773 31.7264C55.4773 32.3332 55.088 32.8168 54.5776 33.0538C54.5517 33.0632 54.5517 33.0821 54.5776 33.0916C55.3043 33.2908 55.9446 33.7838 55.9446 34.7128C55.9446 35.6231 55.4255 36.2014 54.6728 36.5617C54.2142 36.7797 53.6433 36.8556 53.0637 36.8556C52.6224 36.8556 51.4372 36.7988 50.7797 36.8178C50.7105 36.7892 50.8403 36.4479 50.9008 36.3911C51.0566 36.3815 51.1776 36.3721 51.342 36.3152C51.5757 36.2489 51.6015 36.173 51.6361 35.7843C51.6535 35.4524 51.6535 34.2767 51.6535 33.4425C51.6535 32.2953 51.6622 31.5178 51.6535 31.1386C51.6449 30.8448 51.5497 30.7498 51.3594 30.6929C51.2122 30.6646 50.97 30.6266 50.771 30.5982C50.7277 30.5507 50.8748 30.2283 50.9268 30.1905ZM45.9349 36.0877C46.1426 36.2677 46.5492 36.3435 46.9126 36.3435C47.3797 36.3435 47.8469 36.2489 48.2968 35.8031C48.7553 35.3482 49.0754 34.6466 49.0754 33.5278C49.0754 32.4564 48.7034 31.5841 47.942 31.0722C47.5095 30.7782 46.9558 30.6551 46.3156 30.6551C46.1253 30.6551 45.9436 30.6646 45.8312 30.7214C45.8051 30.7404 45.7446 30.8257 45.7446 30.873C45.7273 31.0627 45.7273 32.5227 45.7273 33.3761C45.7273 34.2578 45.7273 35.4904 45.7446 35.6326C45.7446 35.7748 45.8051 35.9929 45.935 36.0877H45.9349ZM43.971 30.1904C44.1354 30.1904 44.7669 30.2189 45.0697 30.2189C45.6149 30.2189 46.0041 30.1905 47.0336 30.1905C47.8987 30.1905 48.6255 30.4465 49.1446 30.9299C49.7761 31.5273 50.1049 32.3522 50.1049 33.3571C50.1049 34.7888 49.5079 35.6136 48.9109 36.0877C48.3141 36.5712 47.5354 36.8556 46.4281 36.8556C45.8398 36.8556 44.8276 36.8367 43.9883 36.8271H43.9797C43.9365 36.7418 44.0489 36.41 44.1181 36.4005C44.3431 36.3721 44.4037 36.3625 44.5162 36.3153C44.6977 36.2393 44.7324 36.1351 44.7584 35.7843C44.7843 35.1301 44.7757 34.3432 44.7757 33.4519C44.7757 32.8168 44.7843 31.5746 44.7669 31.1764C44.7411 30.8447 44.6113 30.7593 44.3517 30.7024C44.222 30.674 44.0489 30.636 43.8068 30.6077C43.7721 30.5412 43.9278 30.2473 43.971 30.1905V30.1904Z" fill="#8E714E"/>
<path fill-rule="evenodd" clip-rule="evenodd" d="M33.5025 36.4574C33.2862 36.4289 33.1305 36.3911 32.9402 36.2963C32.9142 36.2773 32.8709 36.1826 32.8709 36.1446C32.8537 35.8127 32.8537 34.8646 32.8537 34.2295C32.8537 33.7174 32.7759 33.2718 32.5768 32.959C32.3432 32.5986 32.0059 32.3901 31.5732 32.3901C31.1926 32.3901 30.6822 32.6745 30.2582 33.0727C30.2496 33.0822 30.1804 33.1487 30.189 33.0443C30.189 32.94 30.2064 32.7314 30.215 32.5891C30.2237 32.4564 30.1544 32.3901 30.1544 32.3901C29.8776 32.5418 29.099 32.7409 28.8135 32.7692C28.6059 32.8168 28.554 33.0348 28.7703 33.1107H28.779C29.0124 33.1865 29.1682 33.2718 29.2892 33.3572C29.3758 33.433 29.3671 33.5373 29.3671 33.6227C29.3758 34.3337 29.3758 35.424 29.3499 36.0214C29.3413 36.2584 29.2807 36.3437 29.1249 36.3816L29.1422 36.3721C29.0211 36.4006 28.926 36.4289 28.7789 36.4479C28.7269 36.5049 28.7269 36.8083 28.7789 36.8746C28.874 36.8746 29.3758 36.8462 29.7912 36.8462C30.3621 36.8462 30.6563 36.8746 30.8033 36.8746C30.8638 36.7988 30.8812 36.5143 30.8466 36.4479C30.6822 36.4385 30.561 36.4196 30.4486 36.3816C30.2929 36.3436 30.2496 36.2584 30.2409 36.0593C30.2237 35.5567 30.2237 34.4949 30.2237 33.7743C30.2237 33.5752 30.2756 33.4804 30.3274 33.4235C30.5264 33.2339 30.8466 33.1012 31.1321 33.1012C31.4089 33.1012 31.5905 33.196 31.729 33.3193C31.9193 33.4899 31.9798 33.7364 32.0058 33.9165C32.049 34.3242 32.0318 35.1301 32.0318 35.8317C32.0318 36.2109 32.0058 36.3058 31.8762 36.3531C31.8155 36.3816 31.6598 36.4196 31.4781 36.4384C31.4175 36.5049 31.4349 36.7988 31.4781 36.8652C31.729 36.8652 32.0232 36.8367 32.4557 36.8367C32.9921 36.8367 33.3382 36.8652 33.4766 36.8652C33.5198 36.8083 33.5371 36.5333 33.5025 36.4574ZM35.8989 32.8358C35.4405 32.8358 35.1549 33.2245 35.1549 33.8312C35.1549 34.4475 35.4058 35.1586 36.1152 35.1586C36.2363 35.1586 36.4613 35.1016 36.565 34.9689C36.7295 34.7984 36.842 34.457 36.842 34.0966C36.842 33.3098 36.4872 32.8358 35.8989 32.8358ZM35.8384 37.0263C35.6654 37.0263 35.5442 37.0832 35.4664 37.1307C35.103 37.3865 34.9387 37.633 34.9387 37.9271C34.9387 38.2019 35.0338 38.4199 35.2415 38.6096C35.4923 38.8466 35.8384 38.9604 36.2796 38.9604C37.162 38.9604 37.5514 38.4389 37.5514 37.9271C37.5514 37.5667 37.3869 37.3297 37.0496 37.197C36.8074 37.0832 36.3662 37.0263 35.8384 37.0263ZM35.8989 39.4914C35.3712 39.4914 34.9905 39.3681 34.6618 39.0932C34.3417 38.8277 34.2033 38.4295 34.2033 38.1546C34.2033 38.0787 34.2206 37.8701 34.3764 37.6805C34.4714 37.5667 34.6792 37.3487 35.1723 36.9789C35.1895 36.9695 35.1982 36.96 35.1982 36.9409C35.1982 36.922 35.1808 36.903 35.1636 36.8936C34.757 36.723 34.6359 36.4479 34.6012 36.2963V36.2773C34.5926 36.2204 34.5753 36.1636 34.6532 36.1066C34.7138 36.0593 34.8003 36.0024 34.8953 35.9361C35.0424 35.8412 35.1982 35.7369 35.2933 35.6515C35.3107 35.6326 35.3107 35.6137 35.3107 35.5947C35.3107 35.5757 35.2933 35.5567 35.276 35.5473C34.6705 35.3292 34.3677 34.8362 34.3677 34.0966C34.3677 33.6132 34.5667 33.177 34.9213 32.9021C35.1636 32.6935 35.7692 32.4375 36.1672 32.4375H36.1931C36.5997 32.447 36.8246 32.5418 37.1447 32.6651C37.3177 32.7314 37.4822 32.7598 37.7072 32.7598C38.0445 32.7598 38.1916 32.6461 38.3126 32.5134C38.3213 32.5323 38.3387 32.5798 38.3473 32.703C38.3559 32.8263 38.3213 33.0064 38.2348 33.1391C38.1656 33.2434 38.0099 33.3193 37.8542 33.3193H37.8109C37.6551 33.3003 37.5859 33.2813 37.5859 33.2813L37.5514 33.3003C37.5427 33.3193 37.5514 33.3382 37.56 33.3667L37.5687 33.3857C37.586 33.471 37.6205 33.7269 37.6205 33.7934C37.6205 34.5708 37.3351 34.912 37.0323 35.168C36.7381 35.405 36.4008 35.5567 36.0201 35.5947C36.0114 35.5947 35.9769 35.5947 35.8989 35.6041C35.8557 35.6041 35.7952 35.6137 35.7864 35.6137H35.7778C35.7086 35.6326 35.5357 35.7274 35.5357 35.8885C35.5357 36.0307 35.6135 36.2015 35.9855 36.2299C36.0633 36.2394 36.1411 36.2394 36.2277 36.2489C36.7208 36.2867 37.3351 36.3342 37.6205 36.4385C38.0185 36.5996 38.2694 36.9884 38.2694 37.4529C38.2694 38.1547 37.8109 38.8088 37.0496 39.2164C36.6776 39.3966 36.3055 39.4914 35.8989 39.4914ZM40.8301 32.8832C40.6486 32.8832 40.4841 32.9304 40.363 33.0253C40.0257 33.2528 39.8526 33.708 39.8526 34.3716C39.8526 35.6137 40.4236 36.486 41.2368 36.486C41.4791 36.486 41.6694 36.41 41.8337 36.2584C42.0846 36.0307 42.2144 35.5757 42.2144 34.9404C42.2144 33.708 41.652 32.8832 40.8301 32.8832ZM40.986 36.941C39.5152 36.941 38.9875 35.7559 38.9875 34.6466C38.9875 33.8692 39.273 33.2718 39.8439 32.8452C40.2506 32.5702 40.7351 32.4186 41.1676 32.4186C42.2923 32.4186 43.0796 33.3003 43.0796 34.5708C43.0796 35.4335 42.7681 36.1161 42.1711 36.5333C41.8857 36.7419 41.3926 36.941 40.986 36.941ZM25.5693 32.8831C25.3876 32.8831 25.2232 32.9304 25.102 33.0253C24.7647 33.2528 24.5916 33.708 24.5916 34.3716C24.5916 35.6137 25.1626 36.486 25.9759 36.486C26.2181 36.486 26.4084 36.41 26.5728 36.2584C26.8236 36.0307 26.9535 35.5757 26.9535 34.9404C26.9535 33.708 26.3998 32.8831 25.5693 32.8831ZM25.725 36.941C24.2542 36.941 23.7265 35.7559 23.7265 34.6466C23.7265 33.8692 24.012 33.2718 24.5829 32.8452C24.9896 32.5702 25.4741 32.4186 25.9067 32.4186C27.0314 32.4186 27.8186 33.3003 27.8186 34.5708C27.8186 35.4335 27.5072 36.1161 26.9102 36.5333C26.6333 36.7419 26.1402 36.941 25.725 36.941ZM15.8365 36.8462C15.8191 36.8178 15.8018 36.7324 15.8105 36.6282C15.8105 36.5522 15.8279 36.5049 15.8365 36.486C16.0182 36.4574 16.1133 36.4289 16.2171 36.4006C16.3902 36.3531 16.4594 36.2489 16.468 36.0119C16.494 35.443 16.494 34.3621 16.4853 33.6132V33.5941C16.4853 33.5089 16.4853 33.4045 16.3902 33.3287C16.2517 33.2339 16.0874 33.1487 15.8711 33.0821C15.7933 33.0538 15.7413 33.0064 15.75 32.9496C15.75 32.8926 15.8019 32.8263 15.9144 32.8073C16.1999 32.7788 16.9438 32.5798 17.2379 32.4375C17.2553 32.4564 17.2813 32.5134 17.2813 32.5892L17.2726 32.6934C17.2639 32.7978 17.2553 32.9211 17.2553 33.0443C17.2553 33.0822 17.29 33.1107 17.3245 33.1107C17.3418 33.1107 17.3592 33.1012 17.3764 33.0916C17.9301 32.6176 18.4318 32.447 18.6913 32.447C19.1154 32.447 19.4441 32.6651 19.695 33.1201C19.7123 33.1487 19.7296 33.1581 19.7556 33.1581C19.7728 33.1581 19.7987 33.1487 19.8074 33.1297C20.3179 32.703 20.8284 32.447 21.1657 32.447C21.9702 32.447 22.4461 33.1012 22.4461 34.2105C22.4461 34.5233 22.4461 34.931 22.4375 35.3009C22.4375 35.6326 22.4288 35.936 22.4288 36.1541C22.4288 36.2014 22.4893 36.3531 22.5845 36.3816C22.7056 36.4479 22.87 36.4764 23.0863 36.5143H23.0949C23.1123 36.5807 23.0777 36.8272 23.0431 36.8746C22.9912 36.8746 22.9132 36.8746 22.8268 36.8652C22.6078 36.8526 22.3886 36.8463 22.1693 36.8462C21.6329 36.8462 21.3561 36.8556 21.0878 36.8746C21.0706 36.7988 21.0619 36.5712 21.0878 36.5143C21.2436 36.486 21.3214 36.4574 21.4166 36.429C21.5897 36.3721 21.6329 36.2867 21.6416 36.0403C21.6416 35.8602 21.6761 34.3242 21.6242 33.9545C21.5724 33.5752 21.3128 33.1297 20.7417 33.1297C20.5255 33.1297 20.1881 33.2245 19.8594 33.4993C19.8421 33.5183 19.8247 33.5657 19.8247 33.5941V33.6037C19.8594 33.8027 19.8594 34.0304 19.8594 34.3811V34.9974C19.8594 35.424 19.8506 35.8223 19.8594 36.1255C19.8594 36.3342 19.9719 36.3816 20.067 36.4196C20.119 36.4289 20.1535 36.4385 20.1968 36.4479C20.2746 36.467 20.3525 36.486 20.4736 36.5143C20.491 36.5523 20.491 36.6755 20.465 36.7798C20.4563 36.8367 20.4389 36.8651 20.4303 36.8746C20.1362 36.8652 19.8334 36.8556 19.3922 36.8556C19.2625 36.8556 19.0375 36.8652 18.8472 36.8652C18.6913 36.8652 18.5443 36.8746 18.4579 36.8746C18.4492 36.8556 18.4318 36.7893 18.4318 36.685C18.4318 36.5997 18.4492 36.5333 18.4665 36.5143C18.5098 36.5049 18.5443 36.4954 18.5877 36.4954C18.6913 36.4764 18.778 36.4574 18.8644 36.4385C19.0116 36.3911 19.0634 36.3058 19.0721 36.0972C19.098 35.6232 19.124 34.2674 19.0634 33.926C18.9597 33.3761 18.6742 33.1012 18.2156 33.1012C17.9474 33.1012 17.6099 33.2434 17.3332 33.4711C17.2899 33.5089 17.2553 33.6036 17.2553 33.689V34.2484C17.2553 34.931 17.2553 35.7843 17.2639 36.1541C17.2726 36.2677 17.3071 36.4006 17.5062 36.4479C17.5495 36.4574 17.6187 36.4764 17.7052 36.486L17.8608 36.5143C17.8783 36.5712 17.8695 36.7988 17.8349 36.8746C17.7484 36.8746 17.6446 36.8652 17.5234 36.8652C17.2987 36.8529 17.0737 36.8466 16.8487 36.8462C16.5459 36.8462 16.3296 36.8556 16.1565 36.8652C16.0354 36.8462 15.9403 36.8462 15.8365 36.8462Z" fill="#442D22"/>
<path fill-rule="evenodd" clip-rule="evenodd" d="M11.2867 39.1218L10.932 38.989C10.932 38.989 10.9753 37.0075 10.3264 36.8653C9.89393 36.3154 10.3958 13.5421 11.953 36.7894C11.953 36.7894 11.4165 37.0832 11.3214 37.5858C11.2175 38.0789 11.2867 39.1218 11.2867 39.1218Z" fill="white"/>
<path fill-rule="evenodd" clip-rule="evenodd" d="M11.2867 39.1218L10.932 38.989C10.932 38.989 10.9753 37.0075 10.3264 36.8653C9.89393 36.3154 10.3958 13.5421 11.953 36.7894C11.953 36.7894 11.4165 37.0832 11.3214 37.5858C11.2175 38.0789 11.2867 39.1218 11.2867 39.1218Z" fill="#A6A385"/>
<path fill-rule="evenodd" clip-rule="evenodd" d="M11.4767 37.2067C11.4767 37.2067 14.5826 34.9691 13.8558 30.3138C13.1551 26.9293 11.5027 25.82 11.321 25.3933C11.122 25.0899 10.9316 24.5591 10.9316 24.5591L11.0615 33.9735C11.0615 33.9831 10.7933 36.8558 11.4768 37.2068" fill="white"/>
<path fill-rule="evenodd" clip-rule="evenodd" d="M11.4767 37.2067C11.4767 37.2067 14.5826 34.9691 13.8558 30.3138C13.1551 26.9293 11.5027 25.82 11.321 25.3933C11.122 25.0899 10.9316 24.5591 10.9316 24.5591L11.0615 33.9735C11.0615 33.9831 10.7933 36.8558 11.4768 37.2068" fill="#499D4A"/>
<path fill-rule="evenodd" clip-rule="evenodd" d="M10.75 37.3298C10.75 37.3298 7.83435 35.1491 8.00741 31.3094C8.17175 27.4696 10.2308 25.5829 10.6287 25.2416C10.8883 24.9382 10.897 24.8244 10.9143 24.521C11.096 24.9477 11.0614 30.9017 11.0873 31.6033C11.1651 34.3053 10.9489 36.8179 10.75 37.3298Z" fill="white"/>
<path fill-rule="evenodd" clip-rule="evenodd" d="M10.75 37.3298C10.75 37.3298 7.83435 35.1491 8.00741 31.3094C8.17175 27.4696 10.2308 25.5829 10.6287 25.2416C10.8883 24.9382 10.897 24.8244 10.9143 24.521C11.096 24.9477 11.0614 30.9017 11.0873 31.6033C11.1651 34.3053 10.9489 36.8179 10.75 37.3298Z" fill="#58AA50"/>
</g>
<defs>
<clipPath id="clip0_820_211">
<rect width="48" height="15" fill="white" transform="translate(8 24.5)"/>
</clipPath>
</defs>
</svg>
