<svg width="64" height="64" viewBox="0 0 64 64" fill="none" xmlns="http://www.w3.org/2000/svg">
<rect width="64" height="64" fill="#E3E5E8"/>
<g clip-path="url(#clip0_1143_233)">
<path d="M26.2363 31.5039C25.5969 31.5039 25.0768 31.6933 24.6782 32.0716C24.2797 32.4503 24.0774 32.9467 24.0774 33.5551C24.0774 33.8703 24.1276 34.1577 24.2265 34.421C24.3255 34.6849 24.4795 34.9294 24.6865 35.1504C24.8935 35.3715 25.3079 35.6717 25.9254 36.0537C26.6833 36.5162 27.1792 36.8917 27.4172 37.1849C27.6553 37.4778 27.7735 37.7847 27.7735 38.1047C27.7735 38.5332 27.6325 38.8753 27.3426 39.1323C27.0522 39.3896 26.6638 39.5177 26.1824 39.5177C25.6746 39.5177 25.2322 39.3387 24.8523 38.9833C24.4724 38.6272 24.2806 38.1563 24.2763 37.5661H24.04V39.7083H24.2763C24.3485 39.5055 24.4482 39.4018 24.5788 39.4018C24.6416 39.4018 24.7888 39.445 25.018 39.526C25.5758 39.7245 26.0337 39.8202 26.3937 39.8202C27.0141 39.8202 27.5437 39.603 27.9849 39.1614C28.4255 38.72 28.6479 38.1876 28.6479 37.5661C28.6479 37.0842 28.501 36.6553 28.2129 36.2816C27.9246 35.9073 27.364 35.4721 26.5263 34.9722C25.8054 34.5391 25.3375 34.1864 25.1216 33.9114C24.9054 33.6368 24.7943 33.3331 24.7943 32.9998C24.7943 32.6393 24.9267 32.3497 25.1879 32.1337C25.4491 31.9176 25.7914 31.8106 26.2197 31.8106C26.7016 31.8106 27.1034 31.9536 27.4213 32.2415C27.7389 32.5299 27.9226 32.9296 27.9766 33.4431H28.2129V31.5869H27.9932C27.9663 31.6815 27.9414 31.7419 27.9186 31.7691C27.8964 31.7961 27.8536 31.8106 27.7901 31.8106C27.7137 31.8106 27.5775 31.7784 27.384 31.7152C26.9696 31.5757 26.5876 31.5039 26.2362 31.5039H26.2363ZM33.9559 31.5039C33.1767 31.5039 32.4693 31.6877 31.8302 32.0551C31.1901 32.4218 30.6834 32.9312 30.3095 33.5799C29.9357 34.2287 29.7501 34.9175 29.7501 35.6518C29.7501 36.638 30.0729 37.5168 30.7239 38.2871C31.375 39.0568 32.1554 39.5364 33.0609 39.7208C33.2679 39.8286 33.564 40.1071 33.9518 40.5578C34.3886 41.0664 34.7583 41.4332 35.0622 41.6517C35.3593 41.8659 35.6897 42.0297 36.04 42.1366C36.3869 42.2421 36.7618 42.2941 37.1672 42.2941C37.6582 42.2941 38.0977 42.2087 38.4849 42.033L38.3979 41.8174C38.1731 41.8985 37.9334 41.9376 37.681 41.9376C37.3384 41.9376 36.9922 41.8247 36.6451 41.5979C36.2985 41.3704 35.8651 40.9367 35.3482 40.2967C35.1052 39.9902 34.9374 39.7967 34.8426 39.7208C35.8333 39.5273 36.6479 39.0472 37.2833 38.2788C37.9183 37.5108 38.2362 36.6342 38.2362 35.6517C38.2362 34.4853 37.8212 33.5048 36.9973 32.7056C36.1727 31.9062 35.1587 31.5039 33.9559 31.5039ZM38.7749 31.5039L38.7874 31.7567C39.3061 31.7567 39.5967 31.9095 39.6617 32.2166C39.6859 32.3266 39.6969 32.5294 39.6989 32.8216L39.6948 38.4114C39.6905 38.8289 39.631 39.0954 39.5167 39.2111C39.4021 39.3259 39.2085 39.3979 38.9283 39.4265L38.9158 39.6794H44.0871L44.2197 38.4114H43.9835C43.916 38.7568 43.7614 39.0043 43.5153 39.1448C43.2684 39.2864 42.832 39.3561 42.2018 39.3561H41.7128C41.1456 39.3561 40.8174 39.1511 40.7307 38.7387C40.7129 38.6571 40.7067 38.5697 40.7059 38.4736L40.7265 32.8216C40.7265 32.4047 40.7791 32.1255 40.8882 31.9887C40.9984 31.8525 41.1971 31.7762 41.4849 31.7567L41.4725 31.5039H38.7749ZM34.0387 31.8105C34.9176 31.8105 35.635 32.1567 36.1893 32.8548C36.7434 33.5531 37.018 34.5102 37.018 35.7222C37.018 36.8706 36.7394 37.7901 36.181 38.4818C35.6226 39.1733 34.8794 39.5177 33.9559 39.5177C33.0686 39.5177 32.3491 39.1625 31.797 38.4487C31.2454 37.7348 30.9725 36.808 30.9725 35.6683C30.9725 34.4972 31.2488 33.5597 31.8054 32.8589C32.3616 32.1589 33.1064 31.8106 34.0388 31.8106L34.0387 31.8105ZM45.931 33.0122C45.8048 33.0122 45.7088 33.0548 45.6369 33.1407C45.5633 33.2262 45.5407 33.3298 45.5664 33.4556C45.5912 33.5777 45.6601 33.6845 45.7694 33.7746C45.8782 33.8646 45.9954 33.9114 46.1216 33.9114C46.2436 33.9114 46.3366 33.8646 46.4034 33.7746C46.4702 33.6846 46.4905 33.5777 46.4655 33.4556C46.4398 33.3298 46.3734 33.2262 46.2708 33.1406C46.167 33.0548 46.053 33.0122 45.931 33.0122ZM49.3412 33.87C49.1269 34.6944 48.6624 35.1406 47.949 35.2125L47.9573 35.4487H48.7901L48.7735 38.2415C48.7748 38.719 48.7895 39.0369 48.8232 39.1987C48.9054 39.586 49.1583 39.783 49.5816 39.783C50.194 39.783 50.8364 39.4098 51.5083 38.6642L51.3054 38.4902C50.8202 38.9812 50.3913 39.2277 50.0167 39.2277C49.7864 39.2277 49.6437 39.0953 49.5898 38.834C49.5751 38.7706 49.5692 38.6964 49.5692 38.6102L49.5774 35.4487H50.8495L50.8371 35.0716H49.5816V33.87H49.3412ZM54.2597 34.9224C53.5481 34.9224 52.9694 35.2679 52.5194 35.9542C52.0718 36.6417 51.9332 37.4034 52.1092 38.2415C52.2128 38.7324 52.4191 39.1128 52.7349 39.381C53.0501 39.6491 53.4501 39.783 53.9283 39.783C54.3734 39.783 54.9933 39.6702 55.2542 39.4431C55.5158 39.2162 55.7567 38.8486 55.9793 38.3451L55.8012 38.1586C55.4461 38.8118 54.7297 39.1407 54.1893 39.1407C53.4464 39.1407 52.9914 38.7331 52.8218 37.9224C52.799 37.8129 52.7825 37.7023 52.7722 37.5909C53.6559 37.451 54.3257 37.2032 54.7777 36.8451C55.2293 36.4867 55.6828 36.1068 55.5982 35.7056C55.5477 35.4671 55.424 35.2796 55.2335 35.1379C55.0405 34.9963 54.5397 34.9224 54.2597 34.9224ZM46.4822 34.9515L44.949 35.3037V35.5772L45.4794 35.5109C45.7362 35.5109 45.8874 35.6271 45.9352 35.8589C45.9512 35.9364 45.9614 36.0454 45.9642 36.1821L45.9475 38.689C45.9433 39.0359 45.9048 39.2375 45.8274 39.2981C45.7494 39.3588 45.5435 39.3893 45.21 39.3893L45.2018 39.6255H47.634L47.6299 39.3892C47.2919 39.3892 47.0728 39.3626 46.9752 39.3105C46.8792 39.2589 46.813 39.1647 46.7846 39.0205C46.7626 38.9166 46.7529 38.7376 46.7514 38.4902L46.7598 34.9515H46.4821H46.4822ZM53.8703 35.4155C54.0183 35.4155 54.1613 35.4727 54.3053 35.5854C54.4474 35.6977 54.5339 35.8226 54.5622 35.9583C54.701 36.6249 54.1101 37.0856 52.7804 37.3423C52.7425 36.8564 52.8267 36.4151 53.0415 36.0164C53.2547 35.6179 53.5323 35.4155 53.8703 35.4155Z" fill="#003B57"/>
<path d="M22.802 21.9331H9.60781C8.72347 21.9331 8 22.6567 8 23.5409V38.0917C8 38.9759 8.72347 39.6995 9.60781 39.6995H18.2978C18.1992 35.3755 19.6757 26.9842 22.802 21.9331Z" fill="#0F80CC"/>
<path d="M22.3225 22.4019H9.60762C8.97969 22.4019 8.46875 22.9127 8.46875 23.5407V37.0298C11.3484 35.9246 15.6703 34.971 18.6587 35.0143C19.2593 31.8743 21.0242 25.7205 22.3225 22.4019Z" fill="url(#paint0_linear_1143_233)"/>
<path d="M25.88 21.4568C24.9763 20.651 23.8822 20.9746 22.8024 21.933C22.6421 22.0753 22.4822 22.2333 22.3231 22.402C20.4758 24.3617 18.7612 27.9914 18.2285 30.7636C18.436 31.1844 18.5981 31.7214 18.7048 32.1317C18.7322 32.2369 18.7568 32.3357 18.7766 32.4197C18.8235 32.6186 18.8487 32.7475 18.8487 32.7475C18.8487 32.7475 18.8321 32.6849 18.7642 32.4879C18.7512 32.4501 18.7368 32.4088 18.7197 32.3603C18.7108 32.3365 18.7013 32.313 18.6912 32.2898C18.5708 32.0096 18.2375 31.4184 18.0908 31.161C17.9745 31.5021 17.8647 31.8454 17.7616 32.1907C18.1851 32.9655 18.4432 34.2934 18.4432 34.2934C18.4432 34.2934 18.4208 34.2073 18.3143 33.9069C18.2198 33.6414 17.7493 32.8168 17.6378 32.6241C17.4472 33.328 17.3714 33.8033 17.4398 33.9189C17.5724 34.1431 17.6987 34.53 17.8097 34.9578C18.0603 35.9215 18.2344 37.0949 18.2344 37.0949C18.2344 37.0949 18.24 37.1727 18.2496 37.2924C18.2147 38.1017 18.2356 38.9409 18.2983 39.6993C18.3813 40.7034 18.5376 41.5659 18.7368 42.0275L18.8721 41.9538C18.5796 41.0443 18.4607 39.8525 18.5127 38.4779C18.5915 36.377 19.0749 33.8432 19.9683 31.2023C21.4777 27.2158 23.5717 24.0173 25.4882 22.4897C23.7413 24.0673 21.3772 29.1738 20.6694 31.0647C19.877 33.1824 19.3154 35.1695 18.977 37.0734C19.5609 35.2884 21.449 34.5213 21.449 34.5213C21.449 34.5213 22.3749 33.3792 23.4571 31.7476C22.8089 31.8954 21.7445 32.1486 21.3879 32.2984C20.862 32.519 20.7203 32.5943 20.7203 32.5943C20.7203 32.5943 22.4238 31.5568 23.8853 31.0871C25.8953 27.9214 28.0853 23.424 25.88 21.4568Z" fill="#003B57"/>
</g>
<defs>
<linearGradient id="paint0_linear_1143_233" x1="807.302" y1="52.3305" x2="807.302" y2="1403.85" gradientUnits="userSpaceOnUse">
<stop stop-color="#97D9F6"/>
<stop offset="0.92024" stop-color="#0F80CC"/>
<stop offset="1" stop-color="#0F80CC"/>
</linearGradient>
<clipPath id="clip0_1143_233">
<rect width="48" height="21.375" fill="white" transform="translate(8 21)"/>
</clipPath>
</defs>
</svg>
