<svg width="64" height="64" viewBox="0 0 64 64" fill="none" xmlns="http://www.w3.org/2000/svg">
<rect width="64" height="64" fill="#E3E5E8"/>
<path d="M26.2057 16L22.8404 20.7387V23.4187L19.9124 24.8107L19.8857 24.7987V42.2773L31.3031 47.6707L32.0004 48L32.6977 47.6707L44.1151 42.2773V24.8L44.0924 24.8107L41.1644 23.4173V20.74L41.0617 20.596L37.7991 16.0013L34.4337 20.74V20.7453L31.9857 17.2973L29.5551 20.7187L29.4684 20.5973L26.2057 16ZM26.8017 18.7533L28.1031 20.5853H24.3097L25.5951 18.7747L26.8017 18.7533ZM38.3937 18.7533L39.6951 20.5853H35.9017L37.1884 18.7747L38.3937 18.7533ZM32.5804 20.048L33.8817 21.8813H30.0884L31.3751 20.0693L32.5804 20.048ZM23.9497 21.5093H25.7497V27.568L23.9497 26.7173V21.5093ZM26.6724 21.5093H28.4631V28.8507L26.6724 28.004V21.5093ZM35.5417 21.5093H37.3417V28L35.5417 28.8493V21.5093ZM38.2644 21.5093H40.0551V26.716L38.2644 27.5613V21.5093ZM29.7284 22.8053H31.5284V30.2987L29.7284 29.448V22.8053ZM32.4511 22.8053H34.2417V29.4627L32.4511 30.308V22.8053ZM41.1631 24.796L42.7471 25.444L41.1631 26.192V24.796ZM22.8404 24.8V26.196L21.2577 25.448L22.8404 24.8ZM21.2804 27.0013L31.3031 31.7347V46.128L21.2817 41.3947L21.2804 27.0013ZM42.7204 27.0013V41.3933L32.6977 46.1267V31.736L42.7204 27.0013Z" fill="black"/>
</svg>
