<svg width="64" height="64" viewBox="0 0 64 64" fill="none" xmlns="http://www.w3.org/2000/svg">
<rect width="64" height="64" fill="#E3E5E8"/>
<g clip-path="url(#clip0_1145_381)">
<path d="M26.3333 48.0002C29.2773 48.0002 31.6667 45.6108 31.6667 42.6668V37.3335H26.3333C23.3893 37.3335 21 39.7228 21 42.6668C21 45.6108 23.3893 48.0002 26.3333 48.0002Z" fill="#0ACF83"/>
<path d="M21 31.9998C21 29.0558 23.3893 26.6665 26.3333 26.6665H31.6667V37.3332H26.3333C23.3893 37.3332 21 34.9438 21 31.9998Z" fill="#A259FF"/>
<path d="M21 21.3333C21 18.3893 23.3893 16 26.3333 16H31.6667V26.6667H26.3333C23.3893 26.6667 21 24.2773 21 21.3333Z" fill="#F24E1E"/>
<path d="M31.667 16H37.0003C39.9443 16 42.3337 18.3893 42.3337 21.3333C42.3337 24.2773 39.9443 26.6667 37.0003 26.6667H31.667V16Z" fill="#FF7262"/>
<path d="M42.3337 31.9998C42.3337 34.9438 39.9443 37.3332 37.0003 37.3332C34.0563 37.3332 31.667 34.9438 31.667 31.9998C31.667 29.0558 34.0563 26.6665 37.0003 26.6665C39.9443 26.6665 42.3337 29.0558 42.3337 31.9998Z" fill="#1ABCFE"/>
</g>
<defs>
<clipPath id="clip0_1145_381">
<rect width="21.3333" height="32" fill="white" transform="translate(21 16)"/>
</clipPath>
</defs>
</svg>
