<svg width="64" height="64" viewBox="0 0 64 64" fill="none" xmlns="http://www.w3.org/2000/svg">
<rect width="64" height="64" fill="#E3E5E8"/>
<g clip-path="url(#clip0_1143_222)">
<path d="M34.3183 32.0001C34.3183 32.3046 34.2583 32.6061 34.1418 32.8874C34.0253 33.1686 33.8545 33.4242 33.6392 33.6395C33.2043 34.0743 32.6146 34.3185 31.9997 34.3185C31.3848 34.3185 30.7951 34.0741 30.3603 33.6393C29.9255 33.2045 29.6813 32.6148 29.6813 31.9999C29.6814 31.385 29.9257 30.7952 30.3605 30.3605C30.7953 29.9257 31.385 29.6815 31.9999 29.6815C32.6148 29.6815 33.2046 29.9258 33.6393 30.3606C34.0741 30.7955 34.3184 31.3852 34.3183 32.0001ZM42.2911 26.0569C41.7879 25.1883 41.1755 24.3877 40.4688 23.6749L37.7871 25.2219C36.9607 24.5163 36.013 23.9667 34.9903 23.5996C34.096 24.4975 33.3635 25.5432 32.8253 26.6906C35.8096 26.4874 38.8906 27.5684 41.7501 29.8026L43.4376 28.8281C43.1747 27.8593 42.7894 26.9282 42.2911 26.0569ZM32.0001 43.8809C33.003 43.8777 34.0015 43.7478 34.9718 43.4944V40.4006C35.997 40.0383 36.9472 39.4915 37.7756 38.7871C37.4445 37.5636 36.9054 36.4061 36.1818 35.3654C34.8653 38.0499 32.3906 40.1779 29.0256 41.5371V43.4846C29.9956 43.7455 30.9956 43.8788 32.0001 43.8809ZM21.7091 26.0596C21.2098 26.9299 20.8235 27.8603 20.5596 28.8284L23.2403 30.3751C23.0421 31.4434 23.0403 32.5401 23.2346 33.6096C24.4594 33.9355 25.7314 34.0474 26.9943 33.9406C25.3251 31.4591 24.7218 28.2501 25.2246 24.6564L23.5371 23.6819C22.829 24.3934 22.2147 25.1924 21.7091 26.0596Z" fill="black"/>
<path d="M32 16.0312C23.1807 16.0312 16.0312 23.1807 16.0312 32C16.0312 40.8193 23.1807 47.9688 32 47.9688C40.8193 47.9688 47.9688 40.8193 47.9688 32C47.9688 23.1807 40.8193 16.0312 32 16.0312ZM32 18.0752C39.6775 18.0752 45.925 24.3222 45.925 32C45.925 39.6775 39.6775 45.925 32 45.925C24.3225 45.925 18.075 39.6775 18.075 32C18.075 24.3225 24.3225 18.0752 32 18.0752ZM32 20.1153C30.9971 20.1193 29.9987 20.2495 29.0282 20.5027V23.5967C28.0031 23.9586 27.0529 24.505 26.2245 25.209C26.5552 26.4327 27.0943 27.5902 27.8182 28.6307C29.1347 25.9472 31.6093 23.8183 34.9745 22.459V20.5125C34.0039 20.2541 33.0044 20.1205 32 20.115V20.1153ZM38.2725 30.025C37.8514 30.0125 37.4298 30.0239 37.01 30.0592C38.6775 32.5407 39.2812 35.7498 38.7782 39.3435L40.4657 40.318C41.1715 39.6051 41.7847 38.8062 42.291 37.9403C42.791 37.072 43.1748 36.1402 43.4405 35.1715L40.7625 33.625C40.9625 32.544 40.9625 31.45 40.7682 30.3905C39.953 30.1735 39.1155 30.051 38.2722 30.0255L38.2725 30.025ZM22.25 34.1935L20.5625 35.1693C20.8277 36.1372 21.2129 37.0683 21.709 37.9408C22.2124 38.8091 22.8248 39.6095 23.5312 40.3225L26.213 38.7757C27.0392 39.4812 27.9869 40.0305 29.0098 40.3967C29.9041 39.4992 30.6365 38.4538 31.1748 37.3067C28.1905 37.51 25.1095 36.428 22.25 34.1935Z" fill="#00B4FF"/>
</g>
<defs>
<clipPath id="clip0_1143_222">
<rect width="32" height="32" fill="white" transform="translate(16 16)"/>
</clipPath>
</defs>
</svg>
