<svg width="64" height="64" viewBox="0 0 64 64" fill="none" xmlns="http://www.w3.org/2000/svg">
<rect width="64" height="64" fill="#E3E5E8"/>
<g clip-path="url(#clip0_1143_169)">
<path d="M30.2647 31.6964C32.4004 29.6616 31.7487 27.145 29.8144 24.0954C27.8802 21.0458 23.9865 19.9609 23.2601 20.6529C22.5337 21.345 22.3728 26.293 24.307 29.3427C26.2413 32.3922 28.1289 33.7312 30.2647 31.6964Z" fill="url(#paint0_linear_1143_169)"/>
<path d="M32.1114 31.9777C33.6914 34.4689 35.8037 33.558 38.4183 31.067C41.0328 28.5758 42.117 23.8041 41.5796 22.9569C41.0422 22.1096 36.9584 22.1521 34.3439 24.6432C31.7293 27.1342 30.5314 29.4867 32.1114 31.9777Z" fill="url(#paint1_linear_1143_169)"/>
<path d="M31.2479 30.6074C33.8714 30.9296 34.9031 28.5059 35.3842 24.5881C35.8652 20.6702 33.8822 16.5293 32.9899 16.4198C32.0976 16.3102 29.0999 19.8395 28.6188 23.7574C28.1378 27.6752 28.6244 30.2853 31.2479 30.6074Z" fill="url(#paint2_linear_1143_169)"/>
<path d="M30.5868 47.9329C36.0873 47.9329 40.5482 46.335 40.5482 39.0887C40.5482 31.8423 36.0873 25.896 30.5868 25.896C25.0862 25.896 20.6289 31.8423 20.6289 39.0887C20.6289 46.335 25.0862 47.9329 30.5868 47.9329Z" fill="url(#paint3_linear_1143_169)"/>
<path d="M35.6181 37.6091C36.4039 37.6091 37.0409 37.3129 37.0409 36.9474C37.0409 36.5819 36.4039 36.2856 35.6181 36.2856C34.8323 36.2856 34.1953 36.5819 34.1953 36.9474C34.1953 37.3129 34.8323 37.6091 35.6181 37.6091Z" fill="#EAADCC"/>
<path d="M25.081 37.2072C25.8609 37.303 26.5293 37.0866 26.5738 36.7238C26.6183 36.3611 26.0222 35.9894 25.2423 35.8936C24.4623 35.7978 23.794 36.0143 23.7494 36.377C23.7049 36.7398 24.301 37.1115 25.081 37.2072Z" fill="#EAADCC"/>
<path d="M28.9319 36.3298C28.9176 36.3075 28.899 36.2884 28.8772 36.2734C28.8554 36.2585 28.8309 36.248 28.805 36.2427C28.7791 36.2374 28.7524 36.2372 28.7264 36.2424C28.7005 36.2475 28.6758 36.2577 28.6539 36.2725C28.632 36.2873 28.6132 36.3063 28.5988 36.3284C28.5843 36.3505 28.5744 36.3753 28.5696 36.4013C28.5648 36.4273 28.5653 36.454 28.5709 36.4798C28.5766 36.5056 28.5874 36.5301 28.6026 36.5517C28.9073 37.0037 29.3758 37.2661 29.9922 37.3366C30.6059 37.4067 31.1538 37.2494 31.6238 36.8675C31.6448 36.8513 31.6623 36.8311 31.6753 36.808C31.6884 36.785 31.6966 36.7595 31.6997 36.7332C31.7027 36.7069 31.7005 36.6802 31.6931 36.6548C31.6857 36.6293 31.6733 36.6056 31.6565 36.5851C31.6398 36.5645 31.6192 36.5475 31.5958 36.535C31.5724 36.5226 31.5468 36.5149 31.5204 36.5125C31.494 36.5102 31.4674 36.5131 31.4421 36.5211C31.4169 36.5292 31.3935 36.5422 31.3734 36.5594C30.9868 36.8735 30.5455 37.0001 30.0373 36.942C29.5317 36.8842 29.1686 36.681 28.9319 36.3298ZM25.9883 33.2695C26.1751 33.2627 26.3613 33.2929 26.5364 33.3584C26.7114 33.4238 26.8718 33.5232 27.0083 33.6509C27.1452 33.7781 27.2556 33.9312 27.3331 34.1013C27.4106 34.2713 27.4537 34.455 27.46 34.6418C27.4668 34.8286 27.4365 35.0148 27.3711 35.1898C27.3056 35.3649 27.2062 35.5252 27.0786 35.6617C26.9513 35.7986 26.7983 35.909 26.6282 35.9865C26.4582 36.064 26.2745 36.1071 26.0877 36.1134C25.9009 36.1202 25.7147 36.09 25.5396 36.0245C25.3645 35.9591 25.2042 35.8597 25.0676 35.732C24.9308 35.6047 24.8205 35.4517 24.743 35.2816C24.6655 35.1116 24.6224 34.9279 24.6162 34.7411C24.6094 34.5544 24.6396 34.3681 24.705 34.1931C24.7705 34.018 24.8698 33.8577 24.9975 33.7212C25.1247 33.5843 25.2778 33.4739 25.4478 33.3964C25.6178 33.3189 25.8015 33.2758 25.9883 33.2695Z" fill="black"/>
<path d="M26.0631 34.4585C26.0612 34.3975 26.0473 34.3375 26.0222 34.2819C25.9971 34.2263 25.9612 34.1762 25.9167 34.1344C25.8722 34.0927 25.8198 34.0602 25.7627 34.0388C25.7055 34.0174 25.6447 34.0074 25.5838 34.0096C25.5228 34.0117 25.4628 34.0259 25.4073 34.0512C25.3518 34.0766 25.3019 34.1127 25.2604 34.1575C25.2189 34.2022 25.1866 34.2547 25.1655 34.3119C25.1443 34.3692 25.1347 34.43 25.1371 34.491C25.1414 34.6138 25.1943 34.7299 25.2842 34.8137C25.3741 34.8974 25.4936 34.9421 25.6164 34.9378C25.7392 34.9335 25.8552 34.8806 25.939 34.7907C26.0228 34.7008 26.0675 34.5813 26.0632 34.4585H26.0631Z" fill="white"/>
<path d="M34.6085 33.6303C34.7953 33.6235 34.9816 33.6537 35.1566 33.7192C35.3317 33.7846 35.4921 33.884 35.6286 34.0116C35.7655 34.1389 35.8758 34.292 35.9533 34.462C36.0308 34.6321 36.0739 34.8158 36.0801 35.0026C36.0869 35.1893 36.0567 35.3756 35.9913 35.5506C35.9258 35.7257 35.8264 35.8861 35.6988 36.0226C35.5716 36.1594 35.4185 36.2698 35.2484 36.3473C35.0784 36.4248 34.8947 36.4679 34.7079 36.4742C34.5211 36.4809 34.3349 36.4507 34.1599 36.3853C33.9848 36.3198 33.8245 36.2204 33.688 36.0928C33.5511 35.9655 33.4407 35.8125 33.3632 35.6424C33.2857 35.4723 33.2426 35.2886 33.2363 35.1018C33.2295 34.9151 33.2597 34.7289 33.3252 34.5538C33.3906 34.3788 33.49 34.2184 33.6177 34.0819C33.7449 33.9451 33.898 33.8347 34.0681 33.7572C34.2381 33.6797 34.4217 33.6366 34.6085 33.6303Z" fill="black"/>
<path d="M25.9778 32.9718C26.9276 32.9386 27.7244 33.6816 27.7575 34.6312C27.7907 35.581 27.0477 36.3777 26.098 36.4109C25.1482 36.444 24.3516 35.7011 24.3185 34.7513C24.2853 33.8016 25.0282 33.0049 25.9778 32.9718ZM27.1623 34.652C27.1406 34.0311 26.6196 33.5453 25.9986 33.567C25.3777 33.5887 24.8919 34.1096 24.9137 34.7305C24.9353 35.3516 25.4562 35.8373 26.0772 35.8156C26.6981 35.794 27.1839 35.2731 27.1623 34.652ZM34.5988 33.3329C35.5485 33.2997 36.3452 34.0427 36.3784 34.9923C36.4116 35.9421 35.6686 36.7388 34.7189 36.7719C33.7692 36.8051 32.9725 36.0621 32.9393 35.1125C32.9061 34.1627 33.6491 33.366 34.5988 33.3329ZM35.7832 35.0131C35.7615 34.3921 35.2406 33.9064 34.6196 33.9281C33.9986 33.9498 33.5128 34.4707 33.5345 35.0917C33.5562 35.7127 34.0771 36.1985 34.6981 36.1768C35.3191 36.155 35.8048 35.6342 35.7832 35.0131Z" fill="white"/>
<path d="M34.6832 34.8197C34.6814 34.7587 34.6675 34.6986 34.6424 34.643C34.6174 34.5873 34.5815 34.5372 34.537 34.4954C34.4924 34.4537 34.4401 34.4211 34.3829 34.3997C34.3258 34.3782 34.2649 34.3683 34.2039 34.3704C34.1429 34.3725 34.0829 34.3867 34.0274 34.4121C33.9719 34.4375 33.9219 34.4736 33.8804 34.5184C33.8389 34.5632 33.8066 34.6157 33.7855 34.673C33.7644 34.7302 33.7547 34.7911 33.7572 34.8521C33.7622 34.9744 33.8153 35.0898 33.9051 35.1731C33.9949 35.2563 34.1139 35.3007 34.2363 35.2964C34.3587 35.2921 34.4743 35.2396 34.5581 35.1503C34.6418 35.0609 34.6868 34.9421 34.6832 34.8197Z" fill="white"/>
<path d="M23.3071 39.5078L25.4659 41.7541L27.0148 40.1063C27.0813 40.0375 27.1722 39.9976 27.2679 39.9952C27.3635 39.9929 27.4563 40.0284 27.526 40.0939C27.5957 40.1595 27.6368 40.2498 27.6404 40.3455C27.644 40.4411 27.6098 40.5343 27.5452 40.6049L25.971 42.2797L28.2042 44.6034C28.2374 44.6379 28.2634 44.6786 28.2808 44.7231C28.2982 44.7676 28.3067 44.8151 28.3057 44.8629C28.3048 44.9107 28.2944 44.9578 28.2752 45.0016C28.2561 45.0454 28.2285 45.085 28.194 45.1181C28.1595 45.1513 28.1189 45.1773 28.0743 45.1947C28.0298 45.2121 27.9823 45.2206 27.9345 45.2196C27.8867 45.2187 27.8396 45.2083 27.7958 45.1891C27.752 45.17 27.7124 45.1424 27.6793 45.1079L25.4718 42.8108L24.4349 43.9138C24.4022 43.9487 24.3629 43.9767 24.3193 43.9963C24.2757 44.016 24.2287 44.0268 24.1809 44.0283C24.1332 44.0298 24.0856 44.0218 24.0408 44.0049C23.9961 43.988 23.9552 43.9624 23.9204 43.9297C23.8856 43.8969 23.8575 43.8577 23.8379 43.8141C23.8182 43.7705 23.8074 43.7235 23.8059 43.6757C23.8044 43.6279 23.8124 43.5803 23.8293 43.5356C23.8462 43.4909 23.8718 43.45 23.9045 43.4152L24.9666 42.2852L22.7822 40.0123C22.7491 39.9778 22.7231 39.9371 22.7057 39.8926C22.6883 39.8481 22.6798 39.8006 22.6807 39.7528C22.6817 39.705 22.692 39.6578 22.7112 39.614C22.7304 39.5703 22.758 39.5307 22.7925 39.4975C22.8269 39.4644 22.8676 39.4384 22.9121 39.421C22.9566 39.4036 23.0041 39.3951 23.0519 39.3961C23.0997 39.397 23.1469 39.4074 23.1907 39.4265C23.2345 39.4457 23.2739 39.4733 23.3071 39.5078ZM37.8044 39.5078C37.8713 39.4382 37.9631 39.398 38.0596 39.3961C38.1074 39.3952 38.1549 39.4036 38.1995 39.421C38.244 39.4385 38.2846 39.4645 38.3191 39.4976C38.3535 39.5307 38.3811 39.5703 38.4003 39.6141C38.4195 39.6579 38.4298 39.705 38.4308 39.7528C38.4317 39.8006 38.4232 39.8481 38.4058 39.8926C38.3884 39.9371 38.3624 39.9778 38.3293 40.0123L36.1448 42.2852L37.2071 43.4152C37.2712 43.4834 37.3066 43.5737 37.3058 43.6674C37.305 43.761 37.2682 43.8508 37.203 43.918L37.1911 43.9297C37.1563 43.9624 37.1153 43.988 37.0706 44.0049C37.0259 44.0218 36.9783 44.0298 36.9305 44.0283C36.8828 44.0268 36.8357 44.0159 36.7922 43.9963C36.7486 43.9766 36.7093 43.9486 36.6766 43.9137L35.6397 42.8107L33.4322 45.1079C33.3673 45.1754 33.2789 45.2153 33.1853 45.2193C33.0917 45.2233 33.0002 45.1911 32.9298 45.1294L32.9175 45.1181C32.883 45.085 32.8554 45.0454 32.8363 45.0016C32.8171 44.9578 32.8068 44.9107 32.8058 44.8629C32.8049 44.8151 32.8134 44.7676 32.8308 44.7231C32.8482 44.6785 32.8742 44.6379 32.9074 44.6034L35.1406 42.2797L33.5663 40.6049C33.5022 40.5366 33.4668 40.4463 33.4676 40.3527C33.4684 40.2591 33.5052 40.1694 33.5704 40.1022L33.5823 40.0905C33.6526 40.0244 33.7463 39.9889 33.8428 39.9919C33.9392 39.9949 34.0306 40.036 34.0967 40.1063L35.6455 41.7541L37.8044 39.5078Z" fill="#ECB732"/>
<path d="M32.8315 28.2527C32.8997 28.321 32.9381 28.4135 32.9381 28.51C32.9381 28.6065 32.8997 28.6991 32.8315 28.7673L31.1368 30.4622L32.1697 31.4953C32.2359 31.5615 32.2741 31.6507 32.2762 31.7443C32.2784 31.8379 32.2444 31.9288 32.1813 31.998L32.1697 32.0101C32.1014 32.0783 32.0088 32.1167 31.9123 32.1167C31.8158 32.1167 31.7232 32.0783 31.655 32.0101L30.6219 30.977L29.5888 32.0101C29.555 32.044 29.5149 32.0709 29.4707 32.0893C29.4265 32.1077 29.3791 32.1172 29.3312 32.1172C29.2834 32.1173 29.2359 32.1079 29.1917 32.0896C29.1475 32.0713 29.1073 32.0445 29.0734 32.0106C29.0396 31.9768 29.0128 31.9366 28.9945 31.8923C28.9762 31.8481 28.9668 31.8007 28.9669 31.7528C28.9669 31.7049 28.9764 31.6575 28.9948 31.6134C29.0132 31.5692 29.0401 31.529 29.0741 31.4953L30.1071 30.4622L28.4123 28.7674C28.3461 28.7012 28.3079 28.612 28.3058 28.5184C28.3036 28.4248 28.3376 28.3339 28.4007 28.2647L28.4123 28.2526C28.4806 28.1844 28.5732 28.146 28.6697 28.146C28.7662 28.146 28.8588 28.1844 28.927 28.2526L30.6219 29.9474L32.3167 28.2526C32.3505 28.2188 32.3906 28.192 32.4348 28.1737C32.479 28.1554 32.5263 28.146 32.5741 28.146C32.6219 28.146 32.6693 28.1554 32.7134 28.1737C32.7576 28.192 32.7977 28.2189 32.8315 28.2527Z" fill="#FFC73B"/>
</g>
<defs>
<linearGradient id="paint0_linear_1143_169" x1="355.074" y1="-238.592" x2="464.804" y2="293.906" gradientUnits="userSpaceOnUse">
<stop stop-color="#52CE63"/>
<stop offset="1" stop-color="#51A256"/>
</linearGradient>
<linearGradient id="paint1_linear_1143_169" x1="301.911" y1="356.162" x2="-230.651" y2="465.758" gradientUnits="userSpaceOnUse">
<stop stop-color="#52CE63"/>
<stop offset="1" stop-color="#51A256"/>
</linearGradient>
<linearGradient id="paint2_linear_1143_169" x1="367.841" y1="57.5342" x2="265.39" y2="891.926" gradientUnits="userSpaceOnUse">
<stop stop-color="#8AE99C"/>
<stop offset="1" stop-color="#52CE63"/>
</linearGradient>
<linearGradient id="paint3_linear_1143_169" x1="1044.04" y1="410.946" x2="878.68" y2="2226.85" gradientUnits="userSpaceOnUse">
<stop stop-color="#FFE56C"/>
<stop offset="1" stop-color="#FFC63A"/>
</linearGradient>
<clipPath id="clip0_1143_169">
<rect width="24.7492" height="32" fill="white" transform="translate(19.625 16)"/>
</clipPath>
</defs>
</svg>
