<svg width="64" height="64" viewBox="0 0 64 64" fill="none" xmlns="http://www.w3.org/2000/svg">
<rect width="64" height="64" fill="#E3E5E8"/>
<g clip-path="url(#clip0_1143_161)">
<path d="M17.6942 37.2745H24.118C24.3221 37.2745 24.5224 37.2224 24.6992 37.1235C24.8747 37.0256 25.0214 36.8833 25.1245 36.7108C25.2262 36.5403 25.2799 36.3455 25.2801 36.147C25.2801 35.9491 25.2262 35.7547 25.124 35.5833L20.81 28.3355C20.7069 28.163 20.5603 28.0207 20.3848 27.9228C20.2072 27.8237 20.0071 27.7717 19.8037 27.7719C19.6003 27.7717 19.4002 27.8237 19.2226 27.9228C19.0471 28.0207 18.9004 28.163 18.7973 28.3355L17.6942 30.1899L15.5376 26.5636C15.4344 26.3911 15.2876 26.2489 15.1121 26.151C14.9344 26.0519 14.7343 25.9999 14.5309 26C14.3275 25.9998 14.1274 26.0518 13.9498 26.1509C13.7742 26.2488 13.6275 26.3911 13.5243 26.5636L8.156 35.5833C8.0541 35.7537 8.00019 35.9485 8 36.147C8 36.3448 8.05353 36.5394 8.15553 36.7108C8.25864 36.8833 8.40533 37.0256 8.58088 37.1234C8.75852 37.2227 8.95865 37.2747 9.16212 37.2745H13.1943C14.792 37.2745 15.9703 36.5938 16.7809 35.2658L18.7491 31.9594L19.8033 30.19L22.9674 35.505H18.7491L17.6942 37.2745ZM13.1286 35.5033L10.3146 35.5026L14.5328 28.4162L16.6375 31.9594L15.2283 34.3276C14.6899 35.1893 14.0783 35.5033 13.1286 35.5033Z" fill="#00DC82"/>
<path d="M28.1602 37.1682H30.0463V32.9481C30.0463 31.7405 29.9205 30.5329 29.9205 30.5329L30.0317 30.7805C30.2071 31.1637 30.5726 31.9333 31.0019 32.6694L33.5795 37.168H35.6039V27.8789H33.7053L33.7055 32.1785C33.7107 33.3595 33.831 34.5274 33.831 34.5274L33.7359 34.3121C33.5681 33.9384 33.1956 33.1366 32.7623 32.3775L30.1719 27.8789H28.1602V37.1682ZM41.5856 30.4799V34.1425C41.5856 34.9918 41.045 35.6287 40.2779 35.6287C39.5613 35.6287 39.0582 35.0449 39.0582 34.2353V30.4799H37.3105V34.6467C37.3105 36.1729 38.241 37.2743 39.6618 37.2743C40.5294 37.2743 41.2335 36.8762 41.5855 36.2392V37.1681H43.346V30.4799H41.5856ZM48.465 33.6913L50.5902 30.4799H48.6661L47.5095 32.2448L46.3524 30.4799H44.4412L46.5665 33.6781L44.2779 37.1681H46.1516L47.5219 35.1112L48.8798 37.1681H50.7409L48.4649 33.6913H48.465ZM52.555 30.4799H51.3353V32.0193H52.555V34.7396C52.555 36.2923 53.4981 37.1681 54.9567 37.1681H56.0002V35.6155H55.1956C54.6298 35.6155 54.3026 35.3103 54.3026 34.66V32.0192H56.0002V30.4798H54.3026V28.5026H52.5551V30.4798L52.555 30.4799Z" fill="black"/>
</g>
<defs>
<clipPath id="clip0_1143_161">
<rect width="48" height="11.3438" fill="white" transform="translate(8 26)"/>
</clipPath>
</defs>
</svg>
