<svg width="64" height="64" viewBox="0 0 64 64" fill="none" xmlns="http://www.w3.org/2000/svg">
<rect width="64" height="64" fill="#E3E5E8"/>
<path d="M42.1099 33.5718C41.2306 33.573 40.3631 33.774 39.5729 34.1598C39.3255 33.7492 39.1345 33.3073 39.0049 32.8458C38.9305 32.4841 38.9133 32.1129 38.9539 31.7458C39.0394 31.3419 39.1503 30.9438 39.2859 30.5538C39.2809 30.5028 39.2249 30.2618 38.6619 30.2538C38.0989 30.2458 37.6139 30.3608 37.5619 30.5098C37.4641 30.7819 37.3856 31.0606 37.3269 31.3438C36.861 32.4933 36.2874 33.5962 35.6139 34.6378C35.2366 34.0192 35.0814 33.2905 35.1739 32.5718C35.2594 32.1679 35.3703 31.7698 35.5059 31.3798C35.5009 31.3288 35.4449 31.0878 34.8819 31.0798C34.3189 31.0718 33.8339 31.1868 33.7819 31.3358C33.7299 31.4848 33.6639 31.8358 33.5469 32.1698C33.4299 32.5038 32.0639 35.5558 31.7059 36.3428C31.5219 36.7428 31.3629 37.0688 31.2509 37.2888C31.2456 37.3031 31.2389 37.3168 31.2309 37.3298L31.0779 37.6218V37.6268C31.0009 37.7648 30.9189 37.8928 30.8779 37.8928C30.8064 37.6071 30.8098 37.3078 30.8879 37.0238C31.0879 35.9648 31.5779 34.3188 31.5729 34.2618C31.5729 34.2308 31.6649 33.9448 31.2559 33.7968C31.161 33.7517 31.0545 33.737 30.951 33.7549C30.8475 33.7729 30.7521 33.8224 30.6779 33.8968C30.6419 33.8968 30.6169 33.9838 30.6169 33.9838C30.6169 33.9838 31.0619 32.1328 29.7679 32.1328C29.264 32.2342 28.7854 32.4353 28.3604 32.7243C27.9354 33.0133 27.5724 33.3844 27.2929 33.8158C26.9449 34.0048 26.2039 34.4088 25.4109 34.8438C25.1109 35.0128 24.7969 35.1818 24.5059 35.3438C24.4859 35.3238 24.4649 35.2978 24.4449 35.2778C22.8699 33.5998 19.9749 32.4158 20.0999 30.1708C20.1459 29.3528 20.4269 27.2048 25.6589 24.5958C29.9649 22.4738 33.3919 23.0618 33.9849 24.3658C34.8339 26.2278 32.1489 29.6848 27.6999 30.1858C27.2077 30.2857 26.6994 30.2736 26.2125 30.1505C25.7256 30.0275 25.2725 29.7965 24.8869 29.4748C24.6519 29.2188 24.6159 29.2038 24.5289 29.2548C24.3859 29.3318 24.4779 29.5618 24.5289 29.6948C24.6986 30.0019 24.9282 30.272 25.204 30.4889C25.4799 30.7058 25.7964 30.8653 26.1349 30.9578C27.8851 31.336 29.7099 31.1552 31.3519 30.4408C34.0519 29.3978 36.1519 26.4978 35.5359 24.0688C34.9169 21.6038 30.8259 20.7908 26.9539 22.1688C24.5287 22.9849 22.2877 24.2703 20.3589 25.9518C18.2259 27.9468 17.8889 29.6798 18.0269 30.4068C18.5269 32.9848 22.0779 34.6618 23.4989 35.9068C23.4347 35.9433 23.37 35.979 23.3049 36.0138C22.5939 36.3668 19.8839 37.7838 19.2049 39.2818C18.4379 40.9818 19.3279 42.1968 19.9159 42.3608C20.8019 42.5729 21.732 42.503 22.5764 42.161C23.4208 41.8189 24.1373 41.2217 24.6259 40.4528C25.042 39.815 25.2977 39.0861 25.3714 38.3282C25.445 37.5703 25.3344 36.8058 25.0489 36.0998C25.0441 36.0884 25.0373 36.0779 25.0289 36.0688L25.5859 35.7418C25.9244 35.5417 26.2671 35.349 26.6139 35.1638C26.4057 35.7642 26.2835 36.3911 26.2509 37.0258C26.1802 37.9986 26.4779 38.9624 27.0849 39.7258C27.1773 39.8053 27.2845 39.8657 27.4004 39.9035C27.5162 39.9412 27.6384 39.9556 27.7599 39.9458C28.3599 39.9458 28.6349 39.4458 28.9359 38.8518C29.3039 38.1258 29.6359 37.2818 29.6359 37.2818C29.6359 37.2818 29.2219 39.5628 30.3469 39.5628C30.7559 39.5628 31.1699 39.0308 31.3549 38.7628V38.7678L31.3859 38.7168L31.4519 38.6098V38.5998C31.6159 38.3138 31.9839 37.6638 32.5309 36.5848C33.2369 35.1938 33.9169 33.4548 33.9169 33.4548C33.9825 33.837 34.073 34.2144 34.1879 34.5848C34.3526 35.0337 34.5474 35.4711 34.7709 35.8938C34.6069 36.1238 34.5049 36.2518 34.5049 36.2518L34.5099 36.2568C34.3769 36.4308 34.2339 36.6198 34.0749 36.8038C33.6018 37.3239 33.1629 37.874 32.7609 38.4508C32.7012 38.5477 32.6806 38.6637 32.7035 38.7752C32.7264 38.8867 32.7909 38.9852 32.8839 39.0508C33.0944 39.1603 33.3344 39.1999 33.5689 39.1638C33.9224 39.1438 34.2699 39.0644 34.5969 38.9288C34.9129 38.8176 35.211 38.6609 35.4819 38.4638C35.7611 38.2703 35.9859 38.0083 36.1346 37.7029C36.2833 37.3975 36.3509 37.0589 36.3309 36.7198C36.2995 36.2926 36.1903 35.8748 36.0089 35.4868C36.0599 35.4148 36.1089 35.3438 36.1569 35.2718C36.7254 34.4232 37.2379 33.5383 37.6909 32.6228C37.7565 33.005 37.847 33.3824 37.9619 33.7528C38.0978 34.1408 38.265 34.517 38.4619 34.8778C37.8078 35.381 37.2927 36.0424 36.9649 36.7998C36.6429 37.7308 36.8929 38.1498 37.3649 38.2468C37.6232 38.2646 37.8814 38.2117 38.1119 38.0938C38.4508 37.9824 38.77 37.8184 39.0579 37.6078C39.3615 37.4287 39.6157 37.1768 39.7978 36.875C39.9798 36.5732 40.084 36.2309 40.1009 35.8788C40.0782 35.5274 39.9988 35.1819 39.8659 34.8558C40.729 34.5186 41.6648 34.4111 42.5819 34.5438C45.0159 34.8298 45.4969 36.3488 45.4049 36.9888C45.3618 37.2157 45.2705 37.4307 45.1374 37.6194C45.0042 37.8081 44.8322 37.9661 44.6329 38.0828C44.4639 38.1898 44.4079 38.2258 44.4229 38.3028C44.4429 38.4158 44.5229 38.4098 44.6679 38.3898C45.0347 38.2758 45.3584 38.0532 45.5962 37.7515C45.834 37.4498 45.9748 37.0831 45.9999 36.6998C46.0769 35.1998 44.6449 33.5548 42.1129 33.5698L42.1099 33.5718ZM23.3299 39.8998C22.5219 40.7798 21.3969 41.1118 20.9109 40.8308C20.3889 40.5308 20.5939 39.2308 21.5859 38.2988C22.1744 37.7691 22.8104 37.2948 23.4859 36.8818C23.6039 36.8098 23.7779 36.7078 23.9859 36.5818L24.0419 36.5508L24.1649 36.4738C24.3421 37.0676 24.3582 37.6978 24.2115 38.2999C24.0647 38.902 23.7605 39.4541 23.3299 39.8998ZM29.2109 35.8998C28.9299 36.5848 28.3419 38.3398 27.9839 38.2418C27.6769 38.1598 27.4839 36.8298 27.9229 35.5158C28.1446 34.8833 28.4674 34.2909 28.8789 33.7618C29.3189 33.2708 29.8049 33.1068 29.9219 33.3068C29.8152 34.2017 29.5755 35.0756 29.2109 35.8998ZM34.0639 38.2218C33.9459 38.2828 33.8339 38.3218 33.7829 38.2938C33.7469 38.2738 33.8339 38.1938 33.8339 38.1938C33.8339 38.1938 34.4429 37.5388 34.6829 37.2428C34.8209 37.0688 34.9829 36.8648 35.1589 36.6338V36.6998C35.1589 37.4818 34.4019 38.0088 34.0649 38.2238L34.0639 38.2218ZM37.8079 37.3678C37.7209 37.3068 37.7359 37.1018 38.0279 36.4628C38.2309 36.0524 38.5146 35.6871 38.8619 35.3888C38.9151 35.5402 38.9429 35.6993 38.9439 35.8598C38.9478 36.2013 38.8386 36.5346 38.6333 36.8075C38.428 37.0805 38.1381 37.2779 37.8089 37.3688L37.8079 37.3678Z" fill="#CD6799"/>
</svg>
