<svg width="63" height="64" viewBox="0 0 63 64" fill="none" xmlns="http://www.w3.org/2000/svg">
<rect width="62.6341" height="64" fill="#E3E5E8"/>
<g clip-path="url(#clip0_820_233)">
<path d="M42.5945 22.2729L40.5397 45.352L31.303 47.9192L22.0918 45.3555L20.0391 22.2729H42.5945Z" fill="#E44D26"/>
<path d="M31.3174 45.9568L38.7811 43.8823L40.537 24.1602H31.3174V45.9568Z" fill="#F16529"/>
<path d="M27.3223 29.8222H31.3168V26.9912H24.2363L24.3039 27.7507L24.9979 35.5521H31.3168V32.7212H27.5803L27.3223 29.8222V29.8222ZM27.9587 36.9677H25.1241L25.5197 41.4128L31.3038 43.0225L31.3168 43.019V40.0735L31.3045 40.0768L28.1597 39.2255L27.9587 36.9677Z" fill="#EBEBEB"/>
<path d="M22.1377 16H23.5727V17.4214H24.8854V16H26.3204V20.3043H24.8854V18.863H23.5728V20.3043H22.1378V16H22.1377ZM28.2074 17.4274H26.9443V16H30.9065V17.4274H29.6426V20.3043H28.2076V17.4274H28.2075H28.2074ZM31.5353 16H33.0315L33.9519 17.5124L34.8714 16H36.3683V20.3043H34.9392V18.1709L33.9519 19.7013H33.9272L32.9393 18.1709V20.3043H31.5353V16ZM37.0824 16H38.5178V18.8816H40.5358V20.3043H37.0823V16H37.0824Z" fill="black"/>
<path d="M31.3077 35.5521H34.7848L34.4569 39.2237L31.3076 40.0759V43.0212L37.0964 41.4128L37.1388 40.9344L37.8025 33.4814L37.8713 32.7212H31.3077V35.5521ZM31.3077 29.8153V29.8222H38.1283L38.1849 29.1859L38.3136 27.7507L38.3811 26.9912H31.3077V29.8154V29.8153Z" fill="white"/>
</g>
<defs>
<clipPath id="clip0_820_233">
<rect width="22.6341" height="32" fill="white" transform="translate(20 16)"/>
</clipPath>
</defs>
</svg>
