<svg width="64" height="64" viewBox="0 0 64 64" fill="none" xmlns="http://www.w3.org/2000/svg">
<rect width="64" height="64" fill="#E3E5E8"/>
<path fill-rule="evenodd" clip-rule="evenodd" d="M43.3203 29.5898C43.981 29.5586 44.6283 29.7834 45.1274 30.2174C45.6266 30.6514 45.9392 31.2611 46.0003 31.9198C46.5003 38.4498 40.6403 45.7498 32.2403 45.9798C31.9162 45.9945 31.5924 45.9442 31.2881 45.8318C30.9838 45.7195 30.705 45.5473 30.4683 45.3255C30.2315 45.1037 30.0416 44.8367 29.9097 44.5403C29.7778 44.2439 29.7066 43.9241 29.7003 43.5998C29.6814 42.9516 29.9203 42.3224 30.3645 41.85C30.8088 41.3776 31.4221 41.1007 32.0703 41.0798C37.6503 40.9298 41.1803 36.0798 40.9903 32.1498C40.9603 31.5031 41.1875 30.8709 41.6222 30.3912C42.0569 29.9116 42.6638 29.6234 43.3103 29.5898H43.3203Z" fill="url(#paint0_linear_1143_191)"/>
<path fill-rule="evenodd" clip-rule="evenodd" d="M20.4703 29.4502C21.1184 29.4528 21.739 29.7121 22.1963 30.1713C22.6536 30.6305 22.9103 31.2521 22.9103 31.9002C22.8835 33.1064 23.0994 34.3058 23.5453 35.4269C23.9912 36.548 24.658 37.568 25.506 38.4262C26.354 39.2845 27.3659 39.9635 28.4816 40.4229C29.5972 40.8822 30.7939 41.1126 32.0003 41.1002C32.3211 41.0909 32.6406 41.1452 32.9403 41.26C33.2399 41.3749 33.5139 41.5479 33.7463 41.7692C33.9788 41.9905 34.1651 42.2556 34.2945 42.5493C34.4239 42.8429 34.4939 43.1593 34.5003 43.4802C34.5096 43.8036 34.4548 44.1257 34.339 44.4278C34.2231 44.7299 34.0486 45.006 33.8255 45.2403C33.6024 45.4746 33.335 45.6624 33.0389 45.7928C32.7428 45.9232 32.4238 45.9937 32.1003 46.0002C30.2416 46.0258 28.3966 45.6785 26.6744 44.979C24.9522 44.2794 23.3876 43.2418 22.0732 41.9274C20.7587 40.6129 19.7211 39.0484 19.0216 37.3261C18.322 35.6039 17.9748 33.7589 18.0003 31.9002C18.0056 31.2486 18.2682 30.6255 18.7308 30.1666C19.1935 29.7077 19.8187 29.4502 20.4703 29.4502Z" fill="url(#paint1_linear_1143_191)"/>
<path d="M37.2197 32.0898C37.2197 31.7594 37.285 31.4322 37.4117 31.127C37.5385 30.8218 37.7243 30.5446 37.9584 30.3114C38.1926 30.0782 38.4704 29.8936 38.7761 29.768C39.0818 29.6425 39.4093 29.5785 39.7397 29.5798H43.4097C43.7568 29.5487 44.1066 29.5903 44.4368 29.7018C44.7669 29.8133 45.0702 29.9924 45.3274 30.2275C45.5846 30.4627 45.79 30.7489 45.9305 31.0678C46.071 31.3867 46.1436 31.7313 46.1436 32.0798C46.1436 32.4283 46.071 32.773 45.9305 33.0919C45.79 33.4108 45.5846 33.6969 45.3274 33.9321C45.0702 34.1673 44.7669 34.3463 44.4368 34.4578C44.1066 34.5694 43.7568 34.6109 43.4097 34.5798H39.7397C39.4093 34.5811 39.0818 34.5172 38.7761 34.3916C38.4704 34.2661 38.1926 34.0814 37.9584 33.8482C37.7243 33.615 37.5385 33.3379 37.4117 33.0327C37.285 32.7275 37.2197 32.4003 37.2197 32.0698V32.0898Z" fill="url(#paint2_linear_1143_191)"/>
<path d="M29.5098 32.0898C29.5138 31.5958 29.664 31.1141 29.9416 30.7054C30.2191 30.2967 30.6115 29.9794 31.0692 29.7935C31.527 29.6077 32.0295 29.5616 32.5134 29.6611C32.9973 29.7606 33.4409 30.0013 33.7881 30.3527C34.1353 30.7041 34.3706 31.1505 34.4644 31.6356C34.5581 32.1206 34.506 32.6226 34.3147 33.0781C34.1233 33.5335 33.8014 33.9221 33.3894 34.1947C32.9774 34.4674 32.4939 34.6118 31.9998 34.6098C31.6707 34.6085 31.345 34.5422 31.0416 34.4148C30.7381 34.2873 30.4628 34.1012 30.2314 33.867C30.0001 33.6329 29.8173 33.3554 29.6934 33.0504C29.5696 32.7454 29.5072 32.419 29.5098 32.0898Z" fill="url(#paint3_linear_1143_191)"/>
<path fill-rule="evenodd" clip-rule="evenodd" d="M34.4398 20.3498C34.4546 20.6703 34.406 20.9905 34.2968 21.2923C34.1877 21.594 34.0201 21.8712 33.8037 22.108C33.5872 22.3449 33.3262 22.5367 33.0356 22.6726C32.7449 22.8085 32.4303 22.8857 32.1098 22.8998C26.2898 23.1398 22.7398 27.7198 22.9098 32.0698C22.9273 32.3888 22.8812 32.7081 22.7741 33.0091C22.6671 33.3101 22.5013 33.5868 22.2863 33.8232C22.0714 34.0595 21.8116 34.2508 21.522 34.3858C21.2325 34.5209 20.919 34.597 20.5998 34.6098C19.9397 34.6316 19.2973 34.3934 18.8111 33.9464C18.3248 33.4994 18.0335 32.8794 17.9998 32.2198C17.9707 30.3712 18.308 28.5352 18.9923 26.8177C19.6766 25.1002 20.6942 23.5353 21.9865 22.2132C23.2789 20.8911 24.8203 19.8381 26.5217 19.1149C28.2232 18.3918 30.051 18.0128 31.8998 17.9998C32.548 17.9754 33.1794 18.2091 33.6556 18.6497C34.1318 19.0902 34.4138 19.7016 34.4398 20.3498Z" fill="url(#paint4_linear_1143_191)"/>
<defs>
<linearGradient id="paint0_linear_1143_191" x1="34.9203" y1="37.4198" x2="42.5503" y2="38.3998" gradientUnits="userSpaceOnUse">
<stop stop-color="#1A7D75"/>
<stop offset="1" stop-color="#1A8864"/>
</linearGradient>
<linearGradient id="paint1_linear_1143_191" x1="27.4603" y1="34.5402" x2="23.6003" y2="44.6602" gradientUnits="userSpaceOnUse">
<stop offset="0.01" stop-color="#168A81"/>
<stop offset="1" stop-color="#31A97F"/>
</linearGradient>
<linearGradient id="paint2_linear_1143_191" x1="36.6697" y1="24.6398" x2="43.1497" y2="34.4598" gradientUnits="userSpaceOnUse">
<stop stop-color="#27A59B"/>
<stop offset="1" stop-color="#64D8A2"/>
</linearGradient>
<linearGradient id="paint3_linear_1143_191" x1="26.6998" y1="27.4998" x2="33.6898" y2="33.5498" gradientUnits="userSpaceOnUse">
<stop stop-color="#27A59B"/>
<stop offset="1" stop-color="#64D8A2"/>
</linearGradient>
<linearGradient id="paint4_linear_1143_191" x1="40.4498" y1="31.0898" x2="19.8998" y2="24.1698" gradientUnits="userSpaceOnUse">
<stop stop-color="#27A59B"/>
<stop offset="1" stop-color="#64D8A2"/>
</linearGradient>
</defs>
</svg>
