<svg width="24" height="24" viewBox="0 0 24 24" fill="none" xmlns="http://www.w3.org/2000/svg">
<path d="M18.3778 4.94238L19.0565 5.62158L11.8613 12.8168L11.1826 12.1381L18.3778 4.94238Z" fill="#757575"/>
<path d="M19.1998 9.5998H18.2398V5.7598H14.3998V4.7998H19.1998V9.5998ZM16.7998 18.2398H7.19977C6.38377 18.2398 5.75977 17.6158 5.75977 16.7998V7.1998C5.75977 6.3838 6.38377 5.7598 7.19977 5.7598H12.4798V6.7198H7.19977C6.91177 6.7198 6.71977 6.9118 6.71977 7.1998V16.7998C6.71977 17.0878 6.91177 17.2798 7.19977 17.2798H16.7998C17.0878 17.2798 17.2798 17.0878 17.2798 16.7998V11.5198H18.2398V16.7998C18.2398 17.6158 17.6158 18.2398 16.7998 18.2398Z" fill="#757575"/>
</svg>
