<svg width="24" height="24" viewBox="0 0 24 24" fill="none" xmlns="http://www.w3.org/2000/svg">
<path d="M6.11294 3.27705L8.15981 10.2376H15.8404L17.8872 3.27705C17.9103 3.19809 17.958 3.12859 18.0235 3.07881C18.089 3.02902 18.1687 3.00157 18.2509 3.00049C18.3332 2.99942 18.4136 3.02477 18.4803 3.07283C18.5471 3.12089 18.5966 3.18911 18.6217 3.26745L21.9772 13.7553C22.0074 13.8497 22.0076 13.9511 21.9779 14.0456C21.9481 14.1402 21.8899 14.2232 21.8111 14.2833L12.0001 21.7584L2.18817 14.2833C2.10953 14.2231 2.05145 14.14 2.02188 14.0455C1.99232 13.9509 1.99272 13.8496 2.02304 13.7553L5.37849 3.26745C5.40345 3.18909 5.45292 3.12081 5.5196 3.07266C5.58629 3.02452 5.66667 2.99906 5.74891 3.00003C5.83115 3.00099 5.91091 3.02834 5.97644 3.07804C6.04198 3.12774 6.08982 3.19716 6.11294 3.27609V3.27705Z" fill="black"/>
</svg>
