<svg width="24" height="24" viewBox="0 0 24 24" fill="none" xmlns="http://www.w3.org/2000/svg">
<path d="M4.21046 5H19.7895C21.2593 5 22 5.69371 22 7.10464V17.0047C22 18.4039 21.2593 19.1093 19.7895 19.1093H4.21046C2.74074 19.1093 2 18.4039 2 17.0047V7.10464C2 5.69371 2.74074 5 4.21046 5ZM11.9941 15.1117L19.9189 8.60964C20.2011 8.37449 20.4245 7.83363 20.0717 7.35156C19.7307 6.86949 19.1076 6.85773 18.6961 7.15168L11.9941 11.6902L5.30394 7.15168C4.89242 6.85773 4.26925 6.86949 3.92828 7.35156C3.57554 7.83363 3.79894 8.37449 4.08113 8.60964L11.9941 15.1117Z" fill="black"/>
</svg>
