<svg width="64" height="64" viewBox="0 0 64 64" fill="none" xmlns="http://www.w3.org/2000/svg">
<rect width="64" height="64" fill="#E3E5E8"/>
<g clip-path="url(#clip0_1145_416)">
<path d="M8.00195 28.0176L10.9375 25.0537V38.8348L8.00205 35.9051V28.0177L8.00195 28.0176Z" fill="url(#paint0_linear_1145_416)"/>
<path d="M19.3451 28.0454L16.3693 25.0552L16.4295 38.8346L19.3652 35.905L19.3451 28.0454Z" fill="url(#paint1_linear_1145_416)"/>
<path d="M10.9356 25.0562L18.568 36.7028L16.4323 38.8385L8.7959 27.2177L10.9356 25.0562Z" fill="url(#paint2_linear_1145_416)"/>
<path d="M10.9378 30.4584L10.9336 30.9171L8.57715 27.438L8.7953 27.2158L10.9378 30.4584Z" fill="black" fill-opacity="0.13"/>
<path d="M22.6797 35.0029V29.1857H22.982C23.0827 29.1857 23.1408 29.2344 23.1564 29.3319L23.2088 30.2088C23.4724 29.8737 23.7795 29.6037 24.1304 29.3991C24.481 29.1945 24.8717 29.0921 25.3019 29.0921C25.6197 29.0921 25.8998 29.1429 26.1421 29.2442C26.3842 29.3455 26.5848 29.4917 26.7437 29.6827C26.9027 29.8737 27.0228 30.1036 27.1043 30.3725C27.1857 30.6415 27.2264 30.9455 27.2264 31.2846V35.0029H26.674V31.2846C26.674 30.7389 26.55 30.3112 26.3019 30.0013C26.0537 29.6914 25.6741 29.5364 25.1624 29.5364C24.7823 29.5364 24.4297 29.6349 24.1041 29.8316C23.7785 30.0285 23.4878 30.2984 23.2321 30.6414V35.003H22.6797V35.0029ZM30.7094 29.0921C31.0384 29.0921 31.343 29.1486 31.6232 29.2614C31.8988 29.3712 32.1474 29.5394 32.3519 29.7545C32.5576 29.9704 32.7182 30.236 32.8338 30.5511C32.9493 30.8662 33.0072 31.2279 33.0072 31.6365C33.0072 31.722 32.9944 31.7804 32.9689 31.8115C32.9434 31.8427 32.9033 31.8582 32.8487 31.8582H28.6291V31.9691C28.6291 32.4048 28.68 32.788 28.7819 33.1187C28.8836 33.4494 29.0286 33.7266 29.2167 33.9503C29.4003 34.1707 29.6341 34.3438 29.8984 34.4551C30.1647 34.5679 30.4625 34.6243 30.7917 34.6243C31.0855 34.6243 31.3401 34.5922 31.5557 34.528C31.7711 34.4638 31.9522 34.3918 32.0992 34.3121C32.2461 34.2324 32.3627 34.1604 32.4489 34.0961C32.5351 34.032 32.5978 33.9999 32.637 33.9999C32.6878 33.9999 32.7271 34.0194 32.7544 34.0583L32.9073 34.245C32.8132 34.3617 32.6888 34.4707 32.5341 34.5718C32.3793 34.673 32.2069 34.7596 32.0169 34.8315C31.8184 34.9059 31.6139 34.9635 31.4058 35.0036C31.1883 35.0463 30.9699 35.0679 30.7504 35.0679C30.3509 35.0679 29.9866 34.9988 29.6575 34.8607C29.3331 34.7259 29.0434 34.5194 28.8103 34.2566C28.5745 33.9921 28.3923 33.6682 28.2637 33.285C28.1351 32.9019 28.0708 32.4631 28.0708 31.9691C28.0708 31.5529 28.1305 31.1687 28.25 30.8166C28.3696 30.4644 28.5419 30.161 28.7672 29.9063C28.9923 29.6514 29.2685 29.4521 29.5957 29.3081C29.9228 29.164 30.2941 29.092 30.7095 29.092L30.7094 29.0921ZM30.7466 29.4819C30.4416 29.4819 30.1683 29.5274 29.9267 29.6186C29.685 29.7098 29.4762 29.8408 29.2999 30.0117C29.1237 30.1827 28.9812 30.3878 28.8722 30.6271C28.7631 30.8664 28.691 31.1342 28.6553 31.4305H32.5525C32.5525 31.1265 32.5088 30.8541 32.4217 30.6129C32.3345 30.3717 32.2117 30.1675 32.0534 30.0004C31.895 29.8333 31.7049 29.7051 31.4831 29.6157C31.2614 29.5266 31.0158 29.4819 30.7466 29.4819ZM36.2253 29.0921C36.6492 29.0921 37.0287 29.1631 37.3636 29.3051C37.6983 29.4472 37.9806 29.6485 38.2105 29.9092C38.4403 30.1698 38.6157 30.4839 38.7365 30.8516C38.8575 31.2192 38.9178 31.6307 38.9178 32.0859C38.9178 32.541 38.8574 32.9514 38.7365 33.3172C38.6156 33.6829 38.4403 33.996 38.2106 34.2566C37.9806 34.5173 37.6983 34.7177 37.3636 34.8578C37.0287 34.9978 36.6492 35.0678 36.2253 35.0678C35.8012 35.0678 35.4219 34.9978 35.0871 34.8578C34.7522 34.7177 34.4688 34.5173 34.2371 34.2566C34.0053 33.996 33.8288 33.6828 33.7081 33.3172C33.5871 32.9515 33.5268 32.5409 33.5268 32.0859C33.5268 31.6306 33.5871 31.2192 33.7081 30.8516C33.829 30.4839 34.0053 30.1699 34.2371 29.9092C34.4688 29.6485 34.7522 29.4472 35.087 29.3051C35.4219 29.1632 35.8012 29.0921 36.2253 29.0921ZM36.1927 34.6781C36.5397 34.6781 36.8427 34.6184 37.1019 34.4991C37.361 34.3796 37.5774 34.2084 37.7509 33.9853C37.9244 33.7622 38.0538 33.4931 38.1397 33.1781C38.2253 32.863 38.2683 32.5098 38.2683 32.1183C38.2683 31.7308 38.2254 31.3786 38.1397 31.0615C38.0538 30.7445 37.9243 30.4735 37.7509 30.2484C37.5798 30.0253 37.3571 29.847 37.1019 29.7288C36.8427 29.6076 36.5396 29.5469 36.1927 29.5469C35.8459 29.5469 35.5428 29.6076 35.2836 29.7288C35.0284 29.847 34.8057 30.0253 34.6346 30.2484C34.4612 30.4734 34.3306 30.7445 34.2429 31.0615C34.1552 31.3786 34.1114 31.7309 34.1114 32.1183C34.1114 32.5097 34.1552 32.863 34.2429 33.178C34.3306 33.4932 34.4611 33.7622 34.6346 33.9852C34.8059 34.2067 35.0287 34.3831 35.2836 34.499C35.5428 34.6184 35.8458 34.678 36.1927 34.678V34.6781ZM42.3974 34.8729H41.095L38.7231 28.8973H39.915C40.0196 28.8973 40.1077 28.9226 40.1794 28.973C40.2511 29.0236 40.3007 29.0875 40.3278 29.1652L41.4788 32.3569C41.5427 32.5367 41.598 32.7194 41.6446 32.9044C41.6891 33.0831 41.7288 33.2616 41.7637 33.4402C41.7986 33.2617 41.8383 33.083 41.8829 32.9044C41.9296 32.7188 41.9869 32.536 42.0544 32.3569L43.2347 29.1653C43.2618 29.0874 43.3102 29.0236 43.38 28.9731C43.4497 28.9225 43.533 28.8973 43.63 28.8973H44.7637L42.3975 34.8729H42.3974ZM45.0884 28.9623H46.5823V34.9379H45.0884V28.9623ZM47.5565 34.9379V28.9261H48.4415C48.629 28.9261 48.7518 29.014 48.8105 29.1898L48.9043 29.6351C49.0072 29.5204 49.1178 29.4127 49.2353 29.3128C49.3492 29.2161 49.4729 29.1317 49.6045 29.0609C49.7383 28.9894 49.8799 28.9333 50.0264 28.8939C50.1768 28.853 50.3418 28.8324 50.5216 28.8324C50.9003 28.8324 51.2119 28.9349 51.4563 29.1399C51.7003 29.3451 51.883 29.6175 52.004 29.9574C52.0978 29.7581 52.215 29.5873 52.3556 29.4446C52.4914 29.3058 52.6475 29.1882 52.8185 29.0961C52.9875 29.0059 53.1678 28.9389 53.3547 28.8969C53.5421 28.8541 53.7338 28.8324 53.926 28.8324C54.258 28.8324 54.553 28.8833 54.8108 28.9847C55.0686 29.0863 55.2854 29.2346 55.4612 29.43C55.6369 29.6254 55.7708 29.8636 55.8626 30.1449C55.9544 30.4261 56.0004 30.7484 56.0004 31.1117V34.9379H54.5529V31.1117C54.5529 30.7288 54.4689 30.4407 54.3011 30.2473C54.1331 30.054 53.887 29.9574 53.5627 29.9574C53.4142 29.9574 53.2766 29.9828 53.1498 30.0336C53.0245 30.0832 52.9108 30.158 52.8156 30.2532C52.72 30.349 52.6447 30.4691 52.5901 30.6136C52.5353 30.7582 52.5079 30.9242 52.5079 31.1117V34.9379H51.055V31.1117C51.055 30.7094 50.9739 30.4164 50.8118 30.2328C50.6496 30.0492 50.4106 29.9574 50.0941 29.9574C49.8869 29.9574 49.6927 30.0092 49.511 30.1126C49.3293 30.2161 49.1604 30.3578 49.0042 30.5375V34.9379H47.5567H47.5565ZM45.0884 26.9487H46.5823V28.1829H45.0884V26.9487Z" fill="#444444"/>
</g>
<defs>
<linearGradient id="paint0_linear_1145_416" x1="154.782" y1="25.0537" x2="154.782" y2="1403.16" gradientUnits="userSpaceOnUse">
<stop stop-color="#16B0ED" stop-opacity="0.8"/>
<stop offset="1" stop-color="#0F59B2" stop-opacity="0.837"/>
</linearGradient>
<linearGradient id="paint1_linear_1145_416" x1="-130.433" y1="25.0552" x2="-130.433" y2="1403" gradientUnits="userSpaceOnUse">
<stop stop-color="#7DB643"/>
<stop offset="1" stop-color="#367533"/>
</linearGradient>
<linearGradient id="paint2_linear_1145_416" x1="497.402" y1="25.0562" x2="497.402" y2="1403.29" gradientUnits="userSpaceOnUse">
<stop stop-color="#88C649" stop-opacity="0.8"/>
<stop offset="1" stop-color="#439240" stop-opacity="0.84"/>
</linearGradient>
<clipPath id="clip0_1145_416">
<rect width="48" height="13.875" fill="white" transform="translate(8 25)"/>
</clipPath>
</defs>
</svg>
