<svg width="64" height="64" viewBox="0 0 64 64" fill="none" xmlns="http://www.w3.org/2000/svg">
<rect width="64" height="64" fill="#E3E5E8"/>
<path d="M29.4004 26.8001L29.4671 28.3334L28.4004 30.3334L26.7337 33.6001L26.4004 36.3334L27.6004 40.2001L30.3337 41.7334H34.4671L38.3337 38.8001L40.0671 34.2001L36.0671 29.3334L34.9337 26.6001L29.4004 26.8001Z" fill="#ECEFF1"/>
<path d="M38.8667 30.6C37.8 29.0667 36.9334 28.1334 36.4667 26.2C36 24.2667 36.6 24.8 36.2 23.1334C36 22.2667 35.6667 21.6667 35.3334 21.2C34.9334 20.7334 34.4667 20.4667 34.2 20.4C33.6 20.0667 32.2 19.5334 30.4667 20.4667C28.6667 21.4 28.8667 23.4 29.2 27.4667C29.2 27.7334 29.1334 28.0667 29 28.3334C28.7334 28.9334 28.2667 29.4667 27.8667 29.9334C27.4 30.6 26.9334 31.2667 26.6 32C25.8 33.5334 25.0667 35.4667 25.2667 36.2C25.6 36.1334 29.8 42.5334 29.8 42.6667C30.0667 42.6 31.2 42.6 32.2 42.6C33.6 42.5334 34.4 42.4667 35.5334 42.7334C35.5334 42.5334 35.4667 42.3334 35.4667 42.1334C35.4667 41.7334 35.5334 41.4 35.6 40.9334C35.6667 40.6 35.7334 40.2667 35.8 39.8667C35.1334 40.4667 33.9334 41.1334 32.8 41.3334C31.8 41.5334 30.1334 41.2 29.3334 40.2C29.4 40.2 29.5334 40.2 29.6 40.1334C29.8 40.0667 30 40 30.0667 39.8667C30.2667 39.5334 30.1334 39.2 30 39C29.8667 38.8 28.8667 38.0667 28.4 37.6667C27.9334 37.2667 27.6667 37.0667 27.4 36.8L26.8667 36.2667C26.7334 36.1334 26.6667 36 26.6 35.9334C26.4667 35.6 26.4 35.2 26.4667 34.6667C26.5334 33.9334 26.8 33.3334 27.1334 32.6667C27.2667 32.4 27.6 31.8667 27.6 31.8667C27.6 31.8667 26.4667 34.6667 27.0667 35.5334C27.0667 35.5334 27.1334 34.6667 27.4 33.8C27.6 33.2 27.9334 32.3334 28.3334 31.8667C28.7334 31.4 29.7334 29.6667 29.8 28.6C29.8 28.1334 29.8667 27.6667 29.8667 27.3334C29.6 27.0667 34.2667 26.4 34.5334 27.1334C34.6 27.4 35.5334 29.8 36.0667 31.0667C36.3334 31.6667 36.6667 32.2 36.8667 32.8667C37.0667 33.6 37.2 34.6 37.2 35.6C37.2 35.8 37.2 36.1334 37.1334 36.4667C37.2667 36.4667 39.8667 33.6667 36.8 31.3334C36.8 31.3334 38.6667 32.2 38.7334 33.9334C38.8 35.3334 38.2 36.4667 38.0667 36.6667C38.1334 36.6667 39.4667 37.2667 39.5334 37.2667C39.8 37.2667 40.3334 37.0667 40.3334 37.0667C40.4 36.8667 40.6 36.3334 40.6 36.1334C41.0667 34.6 39.9334 32.1334 38.8667 30.6Z" fill="#263238"/>
<path d="M30.3999 26.1999C30.8785 26.1999 31.2665 25.6029 31.2665 24.8665C31.2665 24.1302 30.8785 23.5332 30.3999 23.5332C29.9212 23.5332 29.5332 24.1302 29.5332 24.8665C29.5332 25.6029 29.9212 26.1999 30.3999 26.1999Z" fill="#ECEFF1"/>
<path d="M33.3999 26.3333C34.0259 26.3333 34.5333 25.6468 34.5333 24.7999C34.5333 23.9531 34.0259 23.2666 33.3999 23.2666C32.774 23.2666 32.2666 23.9531 32.2666 24.7999C32.2666 25.6468 32.774 26.3333 33.3999 26.3333Z" fill="#ECEFF1"/>
<path d="M30.8842 24.9579C30.8288 24.5196 30.5766 24.1904 30.3209 24.2228C30.0652 24.2551 29.9029 24.6366 29.9583 25.075C30.0137 25.5133 30.2659 25.8425 30.5216 25.8101C30.7773 25.7778 30.9396 25.3963 30.8842 24.9579Z" fill="#212121"/>
<path d="M33.3337 25.9335C33.7018 25.9335 34.0003 25.5455 34.0003 25.0669C34.0003 24.5882 33.7018 24.2002 33.3337 24.2002C32.9655 24.2002 32.667 24.5882 32.667 25.0669C32.667 25.5455 32.9655 25.9335 33.3337 25.9335Z" fill="#212121"/>
<path d="M42.1998 39.7335C41.9332 39.6002 41.4665 39.4002 41.0665 38.8002C40.8665 38.4668 40.9332 37.5335 40.5998 37.1335C40.3998 36.8668 40.1332 37.0002 40.0665 37.0002C39.4665 37.1335 38.0665 38.0668 37.1332 37.0002C36.9998 36.8668 36.7998 36.6668 36.4665 36.6668C36.1332 36.6668 35.9998 36.8002 35.8665 37.0668C35.7332 37.3335 35.7332 37.5335 35.7332 38.2002C35.7332 38.7335 35.7332 39.3335 35.6665 39.8002C35.5332 40.9335 35.3332 41.6002 35.3332 42.2668C35.3332 43.0002 35.5332 43.4668 35.7998 43.6668C35.9998 43.8668 36.3332 44.0002 37.0665 44.0002C37.7998 44.0002 38.2665 43.7335 38.7332 43.2668C39.0665 42.9335 39.3332 42.8002 40.2665 42.1335C40.9998 41.6668 42.1332 41.0668 42.3332 40.8668C42.4665 40.7335 42.6665 40.6668 42.6665 40.2668C42.6665 39.9335 42.3998 39.8002 42.1998 39.7335ZM28.7998 39.9335C28.1332 38.8668 28.0665 38.6668 27.5998 38.0002C27.1998 37.3335 26.3332 36.0668 25.7998 36.0668C25.3998 36.0668 25.1998 36.2668 24.9332 36.5335C24.6665 36.8002 24.3998 37.4002 23.9332 37.7335C23.5332 38.0668 22.3998 38.0002 22.1332 38.4002C21.8665 38.8002 22.3998 39.4002 22.3998 40.4002C22.3998 40.8002 22.0665 41.0668 21.9998 41.3335C21.9332 41.6668 21.8665 41.8668 21.9998 42.1335C22.2665 42.5335 22.5998 42.6668 24.8665 43.1335C26.0665 43.4002 27.1998 44.0668 27.9332 44.1335C28.6665 44.2002 29.9332 44.1335 29.9332 42.3335C29.9998 41.2668 29.3998 41.0002 28.7998 39.9335ZM30.0665 27.8668C29.6665 27.6002 29.3332 27.3335 29.3332 26.9335C29.3332 26.5335 29.5998 26.4002 29.9998 26.0668C30.0665 26.0002 30.7998 25.3335 31.5332 25.3335C32.2665 25.3335 33.1332 25.8002 33.4665 25.9335C34.0665 26.0668 34.6665 26.2002 34.5998 26.6668C34.5332 27.3335 34.4665 27.4668 33.7998 27.8002C33.3332 27.9335 32.4665 28.6668 31.8665 28.6668C31.5998 28.6668 31.1998 28.6668 30.9332 28.6002C30.7332 28.5335 30.3998 28.2002 30.0665 27.8668Z" fill="#FFC107"/>
<path d="M29.9333 27.3331C30.0666 27.4665 30.2666 27.5998 30.4666 27.6665C30.6 27.7331 30.8 27.7998 30.8 27.7998H31.4C31.7333 27.7998 32.2 27.6665 32.6666 27.3998C33.1333 27.1998 33.2 27.0665 33.5333 26.9331C33.8666 26.7331 34.2 26.5331 34.0666 26.4665C33.9333 26.3998 33.8 26.4665 33.3333 26.7331C32.9333 26.9998 32.6 27.1331 32.2 27.3331C32 27.3998 31.7333 27.5331 31.5333 27.5331H30.9333C30.7333 27.5331 30.6 27.4665 30.4 27.3998C30.2666 27.3331 30.2 27.2665 30.1333 27.2665C30 27.1998 29.7333 26.9331 29.6 26.8665C29.6 26.8665 29.4666 26.8665 29.5333 26.9331L29.9333 27.3331ZM31.9333 25.8665C32 25.9998 32.1333 25.9998 32.2 26.0665C32.2666 26.1331 32.3333 26.1331 32.3333 26.1331C32.4 26.0665 32.3333 25.9331 32.2666 25.9331C32.2666 25.7998 31.9333 25.7998 31.9333 25.8665ZM30.8666 25.9998C30.8666 26.0665 31 26.1331 31 26.0665C31.0666 25.9998 31.1333 25.9331 31.2 25.9331C31.3333 25.8665 31.2666 25.7998 31.0666 25.7998C30.9333 25.8665 30.9333 25.9331 30.8666 25.9998Z" fill="#634703"/>
<path d="M37.3331 37.8V38C37.4664 38.2667 37.7997 38.3333 38.0664 38.3333C38.4664 38.3333 38.8664 38.0667 39.0664 37.8C39.0664 37.7333 39.1331 37.6667 39.1997 37.6C39.3331 37.4 39.3997 37.2667 39.4664 37.2C39.4664 37.2 39.3997 37.1333 39.3997 37.0667C39.3331 36.9333 39.1331 36.8 38.8664 36.7333C38.6664 36.6667 38.3331 36.6 38.1997 36.6C37.5997 36.5333 37.2664 36.7333 37.0664 36.9333C37.0664 36.9333 37.1331 36.9333 37.1331 37C37.2664 37.1333 37.3331 37.2667 37.3331 37.4667C37.3997 37.6 37.3331 37.6667 37.3331 37.8Z" fill="#455A64"/>
</svg>
