<svg width="64" height="64" viewBox="0 0 64 64" fill="none" xmlns="http://www.w3.org/2000/svg">
<rect width="64" height="64" fill="#E3E5E8"/>
<g clip-path="url(#clip0_1145_465)">
<path d="M35.554 29.9599C35.8088 29.9599 36.0564 29.9963 36.2967 30.0691C36.5296 30.1492 36.6535 30.2511 36.6535 30.3749C36.6535 30.4405 36.6316 30.506 36.5879 30.5643C36.5588 30.6224 36.4933 30.6662 36.4277 30.6662C36.333 30.6371 36.2384 30.6006 36.1438 30.557C35.9617 30.4768 35.7651 30.4332 35.5613 30.4405C35.3501 30.4332 35.1316 30.4842 34.9496 30.5933C34.7895 30.7026 34.7021 30.8919 34.7166 31.0885C34.7093 31.2705 34.7822 31.4453 34.9205 31.5618C35.0733 31.6856 35.2482 31.7875 35.4375 31.8458C35.6414 31.9185 35.8453 31.9986 36.0491 32.0933C36.2536 32.1961 36.429 32.3489 36.5588 32.5375C36.7044 32.7707 36.7778 33.0417 36.7699 33.3165C36.7699 33.7462 36.6462 34.0738 36.3914 34.2923C36.1146 34.5252 35.7579 34.6418 35.3939 34.6199C35.0661 34.6272 34.7385 34.5471 34.4545 34.387C34.1924 34.2122 34.0613 34.0593 34.0613 33.9064C34.0613 33.8336 34.0904 33.768 34.1341 33.7098C34.1705 33.6588 34.2215 33.6224 34.287 33.6151C34.344 33.6222 34.3961 33.6509 34.4326 33.6952C34.4909 33.7462 34.5492 33.8044 34.6147 33.8699C34.7008 33.9486 34.8025 34.0081 34.9132 34.0447C35.0588 34.103 35.219 34.1248 35.3719 34.1248C35.605 34.1394 35.8306 34.0665 36.0127 33.9282C36.1729 33.7826 36.2602 33.5641 36.2457 33.3457C36.253 33.1346 36.1801 32.9379 36.0345 32.7851C35.889 32.6394 35.7142 32.5302 35.5176 32.4574C35.3137 32.3846 35.1171 32.3045 34.9059 32.2171C34.7021 32.1297 34.5273 31.9987 34.389 31.8239C34.2434 31.6273 34.1632 31.3871 34.1778 31.1395C34.1705 30.9429 34.2142 30.7463 34.3016 30.5642C34.3744 30.4114 34.491 30.2876 34.6365 30.2002C34.7748 30.12 34.9205 30.0618 35.0734 30.0181C35.2335 29.9817 35.3938 29.9599 35.554 29.9599ZM31.8259 30.3021C32.0734 30.5205 32.1973 30.87 32.1973 31.3361V33.2219C32.1973 33.6952 32.0735 34.0375 31.8259 34.2559C31.5438 34.4719 31.1983 34.589 30.843 34.589C30.4876 34.589 30.1421 34.4719 29.86 34.2559C29.6197 34.0375 29.4959 33.6953 29.4959 33.2218V31.3362C29.4959 30.8629 29.6196 30.5206 29.86 30.3022C30.1436 30.0895 30.4885 29.9745 30.843 29.9745C31.1974 29.9745 31.5423 30.0894 31.8259 30.3021ZM49.8181 29.9744C49.9929 29.9744 50.1022 30.0327 50.1385 30.1565L51.4274 34.3068V34.3433C51.4274 34.4088 51.3837 34.467 51.3254 34.4961C51.2566 34.5415 51.1744 34.5621 51.0924 34.5544C51.0123 34.5617 50.9322 34.518 50.903 34.4379L50.6265 33.5204H48.9808L48.7041 34.4379C48.6823 34.518 48.5949 34.5689 48.5147 34.5616C48.4394 34.5612 48.3659 34.5385 48.3036 34.4962C48.2381 34.4671 48.2017 34.4088 48.2017 34.336C48.2017 34.3214 48.2089 34.2996 48.2162 34.285L49.4978 30.1565C49.5342 30.0327 49.6434 29.9744 49.8181 29.9744ZM43.3231 29.9744C43.4907 29.9744 43.629 30.0837 43.7455 30.3094L44.7285 32.1953L45.7187 30.3094C45.8425 30.091 45.9809 29.9744 46.1411 29.9744C46.2648 29.9526 46.3814 30.0401 46.4032 30.1638C46.4105 30.185 46.4105 30.208 46.4032 30.2292V34.3578C46.4032 34.416 46.3741 34.467 46.3231 34.4962C46.2666 34.5284 46.2025 34.5454 46.1374 34.5454C46.0723 34.5454 46.0083 34.5284 45.9517 34.4962C45.9271 34.4825 45.9067 34.4624 45.8926 34.438C45.8785 34.4137 45.8713 34.3859 45.8716 34.3578V31.074L44.925 32.8506C44.896 32.9381 44.8158 33.0036 44.7212 33.0036C44.6771 33 44.6351 32.9836 44.6001 32.9564C44.5652 32.9293 44.539 32.8925 44.5246 32.8507L43.578 31.0375V34.3578C43.578 34.416 43.549 34.467 43.4979 34.4962C43.447 34.5326 43.3815 34.5544 43.3231 34.5544C43.2576 34.5544 43.1921 34.5399 43.1412 34.5034C43.0829 34.4816 43.0465 34.4233 43.0538 34.3651V30.2366C43.032 30.1128 43.1193 29.9963 43.2432 29.9744C43.2722 29.9671 43.3013 29.9671 43.3231 29.9744ZM53.5025 29.9671C53.5826 29.9671 53.6627 29.9963 53.7283 30.0473C53.801 30.12 53.8665 30.2074 53.903 30.3021L55.4685 33.3602V30.1493C55.4685 30.091 55.4975 30.04 55.5486 30.0181C55.6052 29.9859 55.6691 29.969 55.7342 29.969C55.7993 29.969 55.8633 29.9859 55.9199 30.0181C55.9709 30.0472 56 30.0982 56 30.1492V34.3651C56 34.4233 55.971 34.4743 55.92 34.5034C55.8616 34.5399 55.8034 34.5544 55.7379 34.5544C55.6658 34.5506 55.5964 34.5258 55.5382 34.4832C55.48 34.4405 55.4355 34.3817 55.4102 34.3141L53.7646 31.1613V34.3651C53.7646 34.4233 53.7356 34.4743 53.6918 34.5034C53.6352 34.5356 53.5713 34.5525 53.5062 34.5525C53.4411 34.5525 53.3771 34.5356 53.3205 34.5034C53.296 34.4897 53.2755 34.4696 53.2614 34.4453C53.2473 34.421 53.24 34.3933 53.2404 34.3651V30.1492C53.2404 30.0254 53.3278 29.9671 53.5025 29.9671ZM25.1416 29.9671H26.3285C26.678 29.9526 27.0275 30.0691 27.297 30.2948C27.5372 30.5132 27.661 30.8554 27.661 31.3215V31.3797C27.661 31.8457 27.5372 32.1953 27.2896 32.4137C27.013 32.6394 26.6634 32.7632 26.3067 32.7414H25.462V34.3651C25.462 34.4233 25.4329 34.4743 25.3819 34.5034C25.3253 34.5356 25.2614 34.5526 25.1963 34.5526C25.1311 34.5526 25.0672 34.5356 25.0106 34.5034C24.986 34.4897 24.9656 34.4696 24.9515 34.4453C24.9374 34.4209 24.9302 34.3932 24.9305 34.3651V30.1492C24.9305 30.0982 24.9524 30.0545 24.9886 30.0181C25.0324 29.9817 25.0833 29.9599 25.1416 29.9671ZM41.0732 29.9671C41.1315 29.9671 41.1825 29.989 41.2116 30.04C41.248 30.0837 41.2625 30.1419 41.2625 30.2002C41.2625 30.2584 41.248 30.3239 41.2116 30.3749C41.1825 30.4258 41.1315 30.4477 41.0732 30.4477H40.0757V34.3651C40.0757 34.4233 40.0466 34.4743 39.9956 34.5034C39.939 34.5356 39.875 34.5525 39.81 34.5525C39.7449 34.5525 39.6809 34.5356 39.6243 34.5034C39.5997 34.4897 39.5793 34.4696 39.5652 34.4453C39.5511 34.421 39.5438 34.3933 39.5442 34.3651V30.4477H38.532C38.4738 30.4477 38.4228 30.4258 38.3937 30.3749C38.3573 30.3239 38.3355 30.2657 38.3355 30.2002C38.3355 30.1419 38.35 30.0837 38.3865 30.04C38.4155 29.989 38.4665 29.9671 38.5247 29.9671H41.0732ZM30.8502 30.4405C30.3041 30.4405 30.0347 30.7317 30.0347 31.3287L30.0274 33.2219C30.0274 33.8117 30.2969 34.1102 30.8502 34.1102C31.0759 34.1248 31.2944 34.0447 31.4619 33.8918C31.622 33.7098 31.6949 33.4695 31.6803 33.2219V31.3287C31.7022 31.0885 31.622 30.8482 31.4619 30.6589C31.2944 30.506 31.0759 30.4258 30.8502 30.4405ZM49.8181 30.739L49.1118 33.0837H50.5171L49.8181 30.739ZM26.3066 30.4478H25.462L25.4548 32.3046H26.3067C26.5323 32.3191 26.7581 32.239 26.9183 32.0788C26.9983 31.9879 27.0589 31.8816 27.0965 31.7664C27.134 31.6512 27.1477 31.5296 27.1367 31.409V31.3362C27.1586 31.0959 27.0785 30.8556 26.9183 30.6663C26.7509 30.5134 26.5323 30.4332 26.3067 30.4479L26.3066 30.4478ZM22.5058 33.2074C23.0155 29.2172 20.1976 25.5692 16.2147 25.0596C12.2319 24.5498 8.56936 27.3676 8.05955 31.3506C7.54992 35.3336 10.3678 38.9888 14.3506 39.5057C18.3408 40.0154 21.9888 37.1976 22.5058 33.2074Z" fill="#FF6C37"/>
<path d="M17.9111 29.676L14.8382 32.7487L13.9717 31.8822C16.9934 28.8604 17.292 29.1226 17.9109 29.676H17.9111Z" fill="white"/>
<path d="M14.8382 32.8213C14.8286 32.8216 14.8191 32.8198 14.8103 32.816C14.8015 32.8123 14.7936 32.8066 14.7872 32.7995L13.9135 31.9331C13.9066 31.9265 13.9011 31.9186 13.8973 31.9098C13.8935 31.9011 13.8916 31.8916 13.8916 31.8821C13.8916 31.8726 13.8935 31.8631 13.8973 31.8544C13.9011 31.8456 13.9066 31.8377 13.9135 31.8312C16.9862 28.7584 17.3066 29.0496 17.9546 29.6322C17.9692 29.6467 17.9764 29.6612 17.9764 29.6832C17.9767 29.6927 17.9748 29.7022 17.9711 29.711C17.9673 29.7198 17.9617 29.7277 17.9546 29.7341L14.8819 32.7995C14.8746 32.8141 14.8527 32.8213 14.8382 32.8213ZM14.0736 31.8822L14.8382 32.6467L17.8016 29.6832C17.2629 29.2027 16.8988 29.057 14.0736 31.8822Z" fill="#FF6C37"/>
<path d="M15.7191 33.6299L14.8818 32.7925L17.9545 29.7197C18.7773 30.5498 17.5468 31.8969 15.7191 33.6299Z" fill="white"/>
<path d="M15.7192 33.7023C15.7097 33.7025 15.7002 33.7007 15.6914 33.6969C15.6826 33.6932 15.6747 33.6875 15.6683 33.6804L14.8309 32.8431C14.8164 32.8285 14.8164 32.814 14.8164 32.7921C14.8164 32.7703 14.8236 32.7557 14.8383 32.7411L17.9109 29.6684C17.9175 29.6615 17.9254 29.656 17.9342 29.6522C17.9429 29.6484 17.9524 29.6465 17.9619 29.6465C17.9714 29.6465 17.9809 29.6484 17.9897 29.6522C17.9984 29.656 18.0063 29.6615 18.0129 29.6684C18.1059 29.7544 18.1793 29.8594 18.2283 29.9762C18.2773 30.093 18.3007 30.2189 18.2969 30.3456C18.2822 31.1539 17.3648 32.1805 15.7775 33.6804C15.7557 33.695 15.7338 33.7023 15.7192 33.7023ZM14.9838 32.7921C15.4498 33.2654 15.6465 33.4548 15.7192 33.5275C16.9426 32.3625 18.1293 31.1684 18.1367 30.3456C18.144 30.1563 18.0711 29.9669 17.9473 29.8213L14.9838 32.7921Z" fill="#FF6C37"/>
<path d="M13.9861 31.9039L14.6051 32.5228C14.6197 32.5374 14.6197 32.5519 14.6051 32.5665C14.5978 32.5738 14.5978 32.5738 14.5905 32.5738L13.309 32.8505C13.2434 32.8578 13.1852 32.8141 13.1707 32.7486C13.1676 32.7316 13.1686 32.7142 13.1737 32.6977C13.1787 32.6812 13.1877 32.6662 13.1998 32.6539L13.9424 31.9112C13.9571 31.8967 13.9789 31.8894 13.9861 31.9039Z" fill="white"/>
<path d="M13.2879 32.9234C13.1787 32.9234 13.0986 32.836 13.0986 32.7268C13.0986 32.6758 13.1205 32.6248 13.1569 32.5884L13.8995 31.8457C13.9197 31.8281 13.9456 31.8184 13.9724 31.8184C13.9992 31.8184 14.0251 31.8281 14.0452 31.8457L14.6642 32.4646C14.7079 32.501 14.7079 32.5665 14.6642 32.6102C14.6495 32.6248 14.635 32.6321 14.6132 32.6393L13.3316 32.916C13.3171 32.916 13.3025 32.9234 13.2879 32.9234ZM13.9651 31.984L13.2515 32.6976C13.237 32.7121 13.2297 32.734 13.2442 32.7558C13.2515 32.7777 13.2734 32.785 13.2952 32.7777L14.4966 32.5155L13.9651 31.984Z" fill="#FF6C37"/>
<path d="M19.5354 27.9719C19.0694 27.5204 18.3194 27.535 17.8679 28.0083C17.4165 28.4815 17.431 29.2242 17.9043 29.6757C18.0912 29.8563 18.3325 29.9699 18.5906 29.9988C18.8488 30.0278 19.1093 29.9706 19.3315 29.836L18.5014 29.0059L19.5353 27.9718L19.5354 27.9719Z" fill="white"/>
<path d="M18.7191 30.0766C18.0274 30.0766 17.4668 29.516 17.4668 28.8241C17.4668 28.1324 18.0274 27.5718 18.7192 27.5718C19.0395 27.5718 19.3527 27.6955 19.5856 27.9213C19.6002 27.9358 19.6075 27.9503 19.6075 27.9723C19.6077 27.9818 19.6059 27.9913 19.6022 28.0001C19.5984 28.0089 19.5927 28.0168 19.5856 28.0232L18.6027 29.0062L19.3745 29.778C19.3814 29.7846 19.3869 29.7925 19.3907 29.8012C19.3945 29.81 19.3964 29.8195 19.3964 29.829C19.3964 29.8385 19.3945 29.848 19.3907 29.8567C19.3869 29.8655 19.3814 29.8734 19.3745 29.88L19.3599 29.8945C19.167 30.0127 18.9454 30.0757 18.7192 30.0766H18.7191ZM18.7191 27.7247C18.1075 27.7247 17.6124 28.2198 17.6197 28.8315C17.6197 29.4431 18.1148 29.9382 18.7264 29.9309C18.894 29.9309 19.0614 29.8945 19.2143 29.8145L18.4498 29.0572C18.4427 29.0508 18.437 29.0429 18.4333 29.0341C18.4295 29.0253 18.4277 29.0158 18.4279 29.0062C18.4279 28.9844 18.4351 28.9698 18.4498 28.9552L19.4254 27.9795C19.2288 27.8121 18.9813 27.7247 18.7192 27.7247H18.7191Z" fill="#FF6C37"/>
<path d="M19.5567 27.9941L19.5422 27.9795L18.501 29.0062L19.3237 29.829C19.4038 29.778 19.4839 29.7198 19.5495 29.6542C19.6598 29.5462 19.7476 29.4173 19.8077 29.2751C19.8678 29.1329 19.8992 28.9801 19.8998 28.8257C19.9005 28.6713 19.8705 28.5183 19.8116 28.3755C19.7527 28.2328 19.6661 28.1031 19.5567 27.9941Z" fill="white"/>
<path d="M19.3307 29.9091C19.3211 29.9093 19.3116 29.9075 19.3028 29.9037C19.294 29.9 19.2861 29.8943 19.2797 29.8872L18.4496 29.0571C18.4425 29.0507 18.4369 29.0429 18.4331 29.0341C18.4293 29.0253 18.4275 29.0158 18.4278 29.0062C18.4278 28.9844 18.435 28.9698 18.4496 28.9552L19.4836 27.9213C19.4901 27.9144 19.498 27.9089 19.5068 27.9051C19.5156 27.9014 19.525 27.8994 19.5345 27.8994C19.5441 27.8994 19.5535 27.9014 19.5622 27.9051C19.571 27.9089 19.5789 27.9144 19.5855 27.9213L19.6073 27.9358C20.0952 28.4237 20.0952 29.2101 19.6146 29.7052C19.5418 29.778 19.4617 29.8435 19.3744 29.8945C19.3525 29.9018 19.3379 29.9091 19.3307 29.9091ZM18.6025 29.0062L19.3379 29.7416C19.3962 29.7052 19.4544 29.6542 19.4981 29.6106C19.9131 29.1955 19.935 28.5184 19.5345 28.0815L18.6025 29.0062Z" fill="#FF6C37"/>
<path d="M18.0348 29.8069C17.9508 29.7229 17.8369 29.6758 17.7181 29.6758C17.5993 29.6758 17.4854 29.7229 17.4013 29.8069L14.6562 32.5519L15.115 33.0107L18.0203 30.4622C18.2096 30.302 18.2241 30.018 18.0639 29.8287C18.0529 29.8233 18.0431 29.8159 18.0348 29.8069Z" fill="white"/>
<path d="M15.1077 33.0835C15.0981 33.0838 15.0886 33.0819 15.0798 33.0782C15.071 33.0744 15.0632 33.0688 15.0568 33.0617L14.598 32.6028C14.5911 32.5963 14.5856 32.5884 14.5819 32.5796C14.5781 32.5709 14.5762 32.5614 14.5762 32.5519C14.5762 32.5424 14.5781 32.5329 14.5819 32.5242C14.5856 32.5154 14.5911 32.5075 14.598 32.5009L17.343 29.7559C17.3912 29.7075 17.4485 29.669 17.5116 29.6428C17.5747 29.6165 17.6424 29.603 17.7108 29.603C17.7791 29.603 17.8468 29.6165 17.9099 29.6428C17.973 29.669 18.0303 29.7075 18.0785 29.7559C18.1269 29.8041 18.1654 29.8614 18.1916 29.9245C18.2179 29.9876 18.2314 30.0553 18.2314 30.1236C18.2314 30.192 18.2179 30.2596 18.1916 30.3227C18.1654 30.3858 18.1269 30.4431 18.0785 30.4913L18.0567 30.5132L15.1513 33.0617C15.1441 33.0762 15.1295 33.0835 15.1077 33.0835ZM14.7582 32.5519L15.115 32.9087L17.9693 30.4039C18.1294 30.2729 18.144 30.0326 18.013 29.8724C17.8819 29.7122 17.6416 29.6976 17.4814 29.8287C17.4731 29.8377 17.4633 29.8451 17.4523 29.8505L14.7582 32.5519Z" fill="#FF6C37"/>
<path d="M12.5524 35.6757C12.5234 35.6903 12.5087 35.7194 12.516 35.7485L12.6398 36.2728C12.6689 36.3456 12.6253 36.433 12.5451 36.4548C12.4869 36.4767 12.4214 36.4548 12.385 36.4111L11.584 35.6174L14.1981 33.0034L15.1009 33.0179L15.7126 33.6297C15.567 33.7534 14.6859 34.6053 12.5524 35.6757Z" fill="white"/>
<path d="M12.4939 36.5277C12.4355 36.5277 12.3773 36.5058 12.3409 36.4621L11.5473 35.6685C11.5401 35.6621 11.5345 35.6542 11.5307 35.6454C11.527 35.6366 11.5251 35.6271 11.5254 35.6175C11.5254 35.5957 11.5326 35.5812 11.5473 35.5665L14.1612 32.9525C14.175 32.9393 14.193 32.9315 14.2121 32.9307L15.115 32.9453C15.1369 32.9453 15.1514 32.9525 15.166 32.9671L15.7776 33.5788C15.7922 33.5946 15.8001 33.6155 15.7995 33.637C15.7995 33.6588 15.7922 33.6734 15.7704 33.688L15.7193 33.7317C14.9476 34.4088 13.899 35.086 12.5956 35.7341L12.7194 36.251C12.7413 36.3457 12.6976 36.4476 12.6102 36.4985C12.5665 36.5204 12.5301 36.5277 12.4938 36.5277H12.4939ZM11.6929 35.6175L12.4429 36.3602C12.4647 36.3966 12.5084 36.4112 12.5448 36.3893C12.5812 36.3675 12.5958 36.3239 12.5738 36.2874L12.4501 35.7631C12.4355 35.6976 12.4647 35.6394 12.5229 35.6103C13.8117 34.9622 14.853 34.2923 15.6176 33.6298L15.0787 33.0909L14.2414 33.0764L11.6929 35.6175Z" fill="#FF6C37"/>
<path d="M10.9644 36.2434L11.5907 35.6172L12.5226 36.5493L11.0373 36.4473C10.9717 36.44 10.9281 36.3818 10.9354 36.3163C10.9354 36.2872 10.9426 36.2581 10.9644 36.2434Z" fill="white"/>
<path d="M12.5234 36.6148L11.0307 36.5129C10.9215 36.5056 10.8487 36.411 10.856 36.3018C10.8633 36.2581 10.8778 36.2144 10.9143 36.1853L11.5405 35.559C11.5471 35.5521 11.555 35.5466 11.5637 35.5429C11.5725 35.5391 11.5819 35.5372 11.5914 35.5372C11.601 35.5372 11.6104 35.5391 11.6191 35.5429C11.6279 35.5466 11.6358 35.5521 11.6423 35.559L12.5744 36.4911C12.5962 36.5129 12.6035 36.5421 12.5889 36.5711C12.5744 36.6003 12.5526 36.6148 12.5234 36.6148ZM11.5914 35.7192L11.0162 36.2945C10.9943 36.309 10.9943 36.3455 11.0162 36.36C11.0235 36.3673 11.0307 36.3745 11.0452 36.3745L12.3341 36.4619L11.5914 35.7192ZM13.9432 33.3383C13.9239 33.3382 13.9055 33.3305 13.8918 33.3169C13.8782 33.3032 13.8705 33.2847 13.8705 33.2654C13.8702 33.2558 13.872 33.2463 13.8758 33.2375C13.8796 33.2287 13.8852 33.2209 13.8923 33.2145L14.5986 32.5082C14.6052 32.5013 14.6131 32.4958 14.6219 32.492C14.6306 32.4883 14.6401 32.4863 14.6496 32.4863C14.6591 32.4863 14.6686 32.4883 14.6773 32.492C14.6861 32.4958 14.694 32.5013 14.7006 32.5082L15.1593 32.9669C15.1811 32.9888 15.1883 33.0106 15.1811 33.0398C15.1763 33.0523 15.1684 33.0635 15.1583 33.0724C15.1482 33.0813 15.136 33.0875 15.1229 33.0907L13.9579 33.3382L13.9432 33.3383ZM14.6496 32.6611L14.169 33.1417L14.9554 32.9741L14.6496 32.6611Z" fill="#FF6C37"/>
<path d="M15.1007 33.0178L14.2997 33.1927C14.2858 33.196 14.2714 33.1966 14.2573 33.1944C14.2432 33.1922 14.2297 33.1872 14.2175 33.1797C14.2054 33.1723 14.1948 33.1625 14.1864 33.151C14.178 33.1395 14.172 33.1264 14.1686 33.1125C14.1614 33.0761 14.1686 33.0397 14.1977 33.0106L14.642 32.5664L15.1007 33.0178Z" fill="white"/>
<path d="M14.2854 33.2653C14.2614 33.2656 14.2377 33.261 14.2155 33.2519C14.1934 33.2429 14.1732 33.2295 14.1563 33.2125C14.1394 33.1956 14.126 33.1754 14.1169 33.1533C14.1078 33.1311 14.1033 33.1073 14.1035 33.0834C14.1035 33.0324 14.1253 32.9887 14.1544 32.9522L14.5986 32.5081C14.6052 32.5012 14.6131 32.4957 14.6218 32.492C14.6306 32.4882 14.64 32.4863 14.6496 32.4863C14.6591 32.4863 14.6685 32.4882 14.6773 32.492C14.6861 32.4957 14.694 32.5012 14.7005 32.5081L15.1592 32.9668C15.1811 32.9887 15.1883 33.0105 15.1811 33.0397C15.1762 33.0523 15.1684 33.0635 15.1583 33.0723C15.1481 33.0812 15.136 33.0875 15.1229 33.0906L14.3219 33.2653H14.2854ZM14.6495 32.661L14.2563 33.0542C14.2418 33.0687 14.2418 33.0833 14.2491 33.0979C14.2563 33.1124 14.271 33.1197 14.2928 33.1197L14.9626 32.9741L14.6495 32.661ZM19.5645 28.6926C19.5499 28.649 19.4989 28.6272 19.4552 28.6417C19.4116 28.6562 19.3897 28.7073 19.4042 28.7509C19.4042 28.7582 19.4116 28.7655 19.4116 28.7727C19.4552 28.8601 19.4406 28.9693 19.3825 29.0495C19.3533 29.0859 19.3606 29.1369 19.3897 29.1659C19.4261 29.195 19.4771 29.1878 19.5062 29.1514C19.6155 29.013 19.6373 28.8382 19.5645 28.6926Z" fill="#FF6C37"/>
</g>
<defs>
<clipPath id="clip0_1145_465">
<rect width="48" height="14.625" fill="white" transform="translate(8 25)"/>
</clipPath>
</defs>
</svg>
