<svg width="64" height="64" viewBox="0 0 64 64" fill="none" xmlns="http://www.w3.org/2000/svg">
<rect width="64" height="64" fill="#E3E5E8"/>
<g clip-path="url(#clip0_1145_446)">
<path d="M35.1227 29.6516C34.4231 29.6516 33.9021 29.9951 33.9021 30.8219C33.9021 31.4447 34.2455 31.8772 35.085 31.8772C35.7966 31.8772 36.28 31.4579 36.28 30.796C36.28 30.046 35.8475 29.6516 35.1227 29.6516ZM33.724 35.4892C33.5583 35.6924 33.3933 35.9084 33.3933 36.163C33.3933 36.6714 34.0416 36.8244 34.9321 36.8244C35.6696 36.8244 36.6743 36.7726 36.6743 36.0869C36.6743 35.6792 36.191 35.6541 35.5802 35.6159L33.724 35.4892ZM37.4881 29.69C37.7166 29.9825 37.9586 30.3896 37.9586 30.9745C37.9586 32.386 36.8522 33.2125 35.2502 33.2125C34.8428 33.2125 34.4741 33.1617 34.2455 33.0982L33.8256 33.772L35.0717 33.8482C37.272 33.9885 38.5686 34.0522 38.5686 35.7429C38.5686 37.2056 37.2846 38.0317 35.0717 38.0317C32.7701 38.0317 31.8926 37.4467 31.8926 36.4422C31.8926 35.87 32.147 35.5654 32.5921 35.145C32.1723 34.9676 32.0326 34.6499 32.0326 34.3062C32.0326 34.0262 32.1723 33.7721 32.4016 33.5302C32.6303 33.289 32.8846 33.0471 33.1898 32.7674C32.5668 32.4621 32.0961 31.8009 32.0961 30.8596C32.0961 29.3975 33.0627 28.3932 35.008 28.3932C35.555 28.3932 35.8857 28.4435 36.1782 28.5204H38.6582V29.6009L37.4881 29.69ZM40.8955 27.3791C40.1705 27.3791 39.7508 26.9591 39.7508 26.234C39.7508 25.5099 40.1703 25.1152 40.8955 25.1152C41.633 25.1152 42.0527 25.5099 42.0527 26.234C42.0527 26.9591 41.6331 27.3791 40.8955 27.3791ZM39.2547 35.0212V34.0171L39.9035 33.9284C40.0816 33.9027 40.1068 33.8647 40.1068 33.6736V29.9349C40.1068 29.7954 40.0688 29.7059 39.9412 29.6681L39.2547 29.4262L39.3945 28.3965H42.0271V33.6736C42.0271 33.8774 42.0393 33.9027 42.2307 33.9285L42.8792 34.0172V35.0212H39.2547ZM47.9081 34.5282C47.3611 34.7951 46.56 35.0367 45.8348 35.0367C44.3216 35.0367 43.7496 34.427 43.7496 32.9892V29.6579C43.7496 29.5816 43.7496 29.5307 43.6475 29.5307H42.7575V28.3986C43.8768 28.2711 44.3216 27.7116 44.4615 26.3255H45.6697V28.1317C45.6697 28.2205 45.6697 28.2589 45.7716 28.2589H47.5645V29.5305H45.6697V32.5696C45.6697 33.3199 45.848 33.6121 46.5343 33.6121C46.8908 33.6121 47.2592 33.5234 47.5643 33.4089L47.9081 34.5282Z" fill="#2F2707"/>
<path d="M29.066 31.1914L23.2515 25.3772C23.1719 25.2976 23.0774 25.2344 22.9733 25.1913C22.8693 25.1482 22.7577 25.126 22.6451 25.126C22.5325 25.126 22.4209 25.1482 22.3169 25.1913C22.2128 25.2344 22.1183 25.2976 22.0387 25.3772L20.8313 26.5847L22.3629 28.1162C22.5429 28.055 22.7365 28.0454 22.9217 28.0886C23.1069 28.1317 23.2763 28.2259 23.4108 28.3604C23.5459 28.4957 23.6403 28.6663 23.6831 28.8527C23.7259 29.0392 23.7154 29.2339 23.6528 29.4146L25.1287 30.8907C25.4858 30.7677 25.8979 30.8474 26.183 31.133C26.2778 31.2277 26.353 31.3402 26.4043 31.464C26.4556 31.5878 26.482 31.7205 26.482 31.8545C26.482 31.9886 26.4556 32.1213 26.4043 32.2451C26.353 32.3689 26.2778 32.4814 26.183 32.5761C26.0163 32.743 25.7968 32.847 25.562 32.8703C25.3271 32.8937 25.0915 32.8349 24.8951 32.704C24.6988 32.5732 24.5538 32.3783 24.485 32.1526C24.4161 31.9269 24.4276 31.6843 24.5175 31.4661L23.141 30.0896L23.1409 33.7121C23.2407 33.7614 23.3318 33.8266 23.4108 33.9051C23.5056 33.9999 23.5808 34.1124 23.6321 34.2362C23.6834 34.36 23.7098 34.4928 23.7098 34.6268C23.7098 34.7608 23.6834 34.8935 23.6321 35.0174C23.5808 35.1412 23.5056 35.2537 23.4108 35.3485C23.012 35.7472 22.3658 35.7472 21.9677 35.3485C21.8487 35.2296 21.761 35.0832 21.7123 34.9223C21.6636 34.7614 21.6554 34.5909 21.6884 34.426C21.7215 34.2611 21.7947 34.107 21.9017 33.9773C22.0087 33.8476 22.1461 33.7463 22.3017 33.6825V30.0262C22.1765 29.9751 22.0629 29.8994 21.9677 29.8035C21.6657 29.5019 21.593 29.0587 21.7478 28.6879L20.238 27.1779L16.2513 31.1644C16.1716 31.244 16.1084 31.3386 16.0653 31.4427C16.0222 31.5468 16 31.6583 16 31.771C16 31.8836 16.0222 31.9952 16.0653 32.0993C16.1084 32.2034 16.1716 32.2979 16.2513 32.3776L22.0658 38.1919C22.2266 38.3527 22.4448 38.443 22.6722 38.443C22.8997 38.443 23.1178 38.3527 23.2787 38.1919L29.066 32.4047C29.2269 32.2438 29.3172 32.0256 29.3172 31.798C29.3172 31.5705 29.2269 31.3523 29.066 31.1914Z" fill="#DE4C36"/>
</g>
<defs>
<clipPath id="clip0_1145_446">
<rect width="32" height="13.5" fill="white" transform="translate(16 25)"/>
</clipPath>
</defs>
</svg>
