<svg width="64" height="64" viewBox="0 0 64 64" fill="none" xmlns="http://www.w3.org/2000/svg">
<rect width="64" height="64" fill="#E3E5E8"/>
<g clip-path="url(#clip0_1145_457)">
<mask id="mask0_1145_457" style="mask-type:alpha" maskUnits="userSpaceOnUse" x="18" y="18" width="28" height="28">
<path fill-rule="evenodd" clip-rule="evenodd" d="M37.8554 45.809C38.0782 45.8958 38.3165 45.9359 38.5554 45.9267C38.7944 45.9176 39.0289 45.8593 39.2444 45.7556L45.0091 42.9816C45.306 42.8387 45.5565 42.6149 45.7318 42.3359C45.9071 42.0569 46.0001 41.7341 46.0001 41.4047V22.5959C46.0001 22.2664 45.9072 21.9435 45.7319 21.6645C45.5566 21.3855 45.3061 21.1616 45.0091 21.0187L39.2444 18.2452C38.9187 18.0884 38.5523 18.0368 38.1959 18.0975C37.8396 18.1582 37.5109 18.3281 37.2553 18.5838L26.2194 28.652L21.4126 25.003C21.1957 24.8384 20.9281 24.7548 20.6561 24.7669C20.3841 24.779 20.125 24.8859 19.9235 25.0691L18.3818 26.4715C18.2616 26.5807 18.1656 26.7139 18.0999 26.8624C18.0341 27.0109 18.0001 27.1715 18 27.3339C17.9999 27.4963 18.0337 27.657 18.0992 27.8056C18.1647 27.9542 18.2605 28.0875 18.3805 28.197L22.5492 32.0002L18.3807 35.8036C18.2608 35.913 18.165 36.0463 18.0996 36.1949C18.0341 36.3435 18.0003 36.5041 18.0004 36.6665C18.0006 36.8289 18.0346 36.9894 18.1003 37.1379C18.166 37.2864 18.2619 37.4195 18.382 37.5288L19.9238 38.9312C20.1251 39.1145 20.3843 39.2215 20.6563 39.2336C20.9283 39.2457 21.196 39.1622 21.4128 38.9975L26.2196 35.3488L37.2555 45.4167C37.4262 45.5877 37.6303 45.7213 37.8554 45.809ZM39.0042 25.6439L30.6307 32.0002L39.0045 38.3566L39.0042 25.6439Z" fill="white"/>
</mask>
<g mask="url(#mask0_1145_457)">
<path d="M45.0097 21.0234L39.2404 18.2453C38.9145 18.0885 38.548 18.0368 38.1914 18.0975C37.8349 18.1581 37.5061 18.3281 37.2504 18.5839L18.364 35.8037C18.244 35.9131 18.1481 36.0464 18.0826 36.195C18.0171 36.3436 17.9833 36.5042 17.9834 36.6666C17.9835 36.829 18.0176 36.9896 18.0833 37.1381C18.1491 37.2866 18.2451 37.4197 18.3653 37.529L19.9079 38.9314C20.1095 39.1146 20.3688 39.2216 20.6409 39.2337C20.913 39.2458 21.1808 39.1623 21.3978 38.9977L44.1415 21.7438C44.9045 21.165 46.0004 21.7092 46.0004 22.6669V22.6C46.0004 22.2705 45.9074 21.9478 45.7322 21.6689C45.5569 21.39 45.3065 21.1664 45.0097 21.0234Z" fill="#0065A9"/>
<g filter="url(#filter0_d_1145_457)">
<path d="M45.0097 42.9773L39.2404 45.755C38.9146 45.9119 38.548 45.9636 38.1915 45.903C37.835 45.8424 37.5061 45.6725 37.2504 45.4168L18.364 28.1968C18.244 28.0874 18.1481 27.9541 18.0826 27.8055C18.0171 27.6569 17.9833 27.4963 17.9834 27.3338C17.9835 27.1714 18.0176 27.0109 18.0833 26.8624C18.1491 26.7139 18.2451 26.5807 18.3653 26.4715L19.9079 25.0691C20.1095 24.8858 20.3688 24.7789 20.6409 24.7668C20.913 24.7547 21.1808 24.8382 21.3978 25.0028L44.1415 42.2565C44.9045 42.8355 46.0004 42.2913 46.0004 41.3336V41.4005C46.0004 41.7299 45.9074 42.0527 45.7322 42.3316C45.5569 42.6105 45.3065 42.8343 45.0097 42.9773Z" fill="#007ACC"/>
</g>
<g filter="url(#filter1_d_1145_457)">
<path d="M39.2402 45.7555C38.9142 45.9122 38.5477 45.9638 38.1911 45.9031C37.8346 45.8424 37.5057 45.6724 37.25 45.4167C37.8957 46.0624 39 45.605 39 44.6917V19.3082C39 18.3949 37.8957 17.9375 37.25 18.5835C37.5057 18.3277 37.8346 18.1577 38.1911 18.097C38.5477 18.0363 38.9142 18.0879 39.2402 18.2446L45.0084 21.0188C45.3054 21.1617 45.5561 21.3855 45.7315 21.6645C45.9069 21.9435 46 22.2664 46 22.596V41.4046C46 41.7342 45.9069 42.0571 45.7315 42.3361C45.5561 42.6151 45.3054 42.8389 45.0084 42.9818L39.2402 45.7555Z" fill="#1F9CF0"/>
</g>
<path opacity="0.25" fill-rule="evenodd" clip-rule="evenodd" d="M37.8389 45.809C38.0617 45.8958 38.2999 45.9359 38.5388 45.9267C38.7778 45.9175 39.0123 45.8593 39.2277 45.7556L44.9924 42.9816C45.2893 42.8387 45.5399 42.6148 45.7152 42.3358C45.8905 42.0568 45.9834 41.734 45.9834 41.4044V22.5959C45.9834 22.2664 45.8905 21.9435 45.7152 21.6645C45.5399 21.3855 45.2893 21.1616 44.9924 21.0187L39.2277 18.2452C38.902 18.0884 38.5356 18.0368 38.1792 18.0975C37.8228 18.1582 37.4942 18.3281 37.2386 18.5838L26.2027 28.652L21.3959 25.0032C21.179 24.8386 20.9114 24.755 20.6394 24.7671C20.3674 24.7792 20.1082 24.8861 19.9068 25.0693L18.3651 26.4717C18.245 26.581 18.149 26.7141 18.0833 26.8626C18.0175 27.0112 17.9835 27.1717 17.9834 27.3341C17.9833 27.4965 18.017 27.6572 18.0825 27.8058C18.148 27.9544 18.2438 28.0877 18.3638 28.1972L22.5325 32.0002L18.364 35.8033C18.244 35.9128 18.1482 36.0461 18.0827 36.1947C18.0172 36.3433 17.9834 36.504 17.9835 36.6664C17.9836 36.8288 18.0177 36.9894 18.0834 37.1379C18.1491 37.2864 18.2452 37.4196 18.3653 37.5288L19.9071 38.9312C20.1084 39.1145 20.3676 39.2214 20.6396 39.2335C20.9116 39.2456 21.1792 39.1621 21.3961 38.9975L26.2031 35.3486L37.2391 45.4167C37.4096 45.5877 37.6139 45.7212 37.8389 45.809ZM38.9877 25.6437L30.614 32.0002L38.9877 38.3564V25.6437Z" fill="url(#paint0_linear_1145_457)"/>
</g>
</g>
<defs>
<filter id="filter0_d_1145_457" x="9.6494" y="16.4316" width="44.6846" height="37.8301" filterUnits="userSpaceOnUse" color-interpolation-filters="sRGB">
<feFlood flood-opacity="0" result="BackgroundImageFix"/>
<feColorMatrix in="SourceAlpha" type="matrix" values="0 0 0 0 0 0 0 0 0 0 0 0 0 0 0 0 0 0 127 0" result="hardAlpha"/>
<feOffset/>
<feGaussianBlur stdDeviation="4.167"/>
<feColorMatrix type="matrix" values="0 0 0 0 0 0 0 0 0 0 0 0 0 0 0 0 0 0 0.25 0"/>
<feBlend mode="overlay" in2="BackgroundImageFix" result="effect1_dropShadow_1145_457"/>
<feBlend mode="normal" in="SourceGraphic" in2="effect1_dropShadow_1145_457" result="shape"/>
</filter>
<filter id="filter1_d_1145_457" x="28.916" y="9.73827" width="25.418" height="44.5235" filterUnits="userSpaceOnUse" color-interpolation-filters="sRGB">
<feFlood flood-opacity="0" result="BackgroundImageFix"/>
<feColorMatrix in="SourceAlpha" type="matrix" values="0 0 0 0 0 0 0 0 0 0 0 0 0 0 0 0 0 0 127 0" result="hardAlpha"/>
<feOffset/>
<feGaussianBlur stdDeviation="4.167"/>
<feColorMatrix type="matrix" values="0 0 0 0 0 0 0 0 0 0 0 0 0 0 0 0 0 0 0.25 0"/>
<feBlend mode="overlay" in2="BackgroundImageFix" result="effect1_dropShadow_1145_457"/>
<feBlend mode="normal" in="SourceGraphic" in2="effect1_dropShadow_1145_457" result="shape"/>
</filter>
<linearGradient id="paint0_linear_1145_457" x1="31.9834" y1="18.0723" x2="31.9834" y2="45.928" gradientUnits="userSpaceOnUse">
<stop stop-color="white"/>
<stop offset="1" stop-color="white" stop-opacity="0"/>
</linearGradient>
<clipPath id="clip0_1145_457">
<rect width="28" height="28" fill="white" transform="translate(18 18)"/>
</clipPath>
</defs>
</svg>
