<svg width="64" height="64" viewBox="0 0 64 64" fill="none" xmlns="http://www.w3.org/2000/svg">
<rect width="64" height="64" fill="#E3E5E8"/>
<g clip-path="url(#clip0_1145_461)">
<path d="M19.0096 41.4096V36.4941L19.1121 36.3916H20.1361L20.2386 36.4941V41.4096L20.1361 41.5122H19.1121L19.0096 41.4096ZM19.0096 27.0178V22.1025L19.1121 22H20.1361L20.2386 22.1025V27.0178L20.1361 27.1203H19.1121L19.0096 27.0178ZM14.5582 37.8661H14.4133L13.6894 37.1417V36.9969L15.38 35.3067L16.1467 35.3071L16.2495 35.4092V36.1758L14.5582 37.8661ZM14.5574 25.6461H14.4127L13.6887 26.3704V26.5153L15.3792 28.2055L16.1459 28.2051L16.2488 28.1029V27.3363L14.5575 25.646L14.5574 25.6461ZM8.10247 31.1416H15.066L15.1686 31.2441V32.2681L15.066 32.3706H8.10247L8 32.2681V31.2441L8.10247 31.1416ZM49.3437 31.1416H55.8978L56.0004 31.2441V32.2681L55.8978 32.3706H48.9343L48.8318 32.2681L49.2411 31.2441L49.3437 31.1416Z" fill="#05BDBA"/>
<path d="M27.8806 32.1933L27.7782 32.2959H24.6015L24.4991 32.3984C24.4991 32.6034 24.7041 33.218 25.5238 33.218C25.8313 33.218 26.1384 33.1156 26.2409 32.9105L26.3434 32.8081H27.5731L27.6756 32.9105L27.669 32.9477C27.5522 33.5618 27.0302 34.4477 25.5238 34.4477C23.7819 34.4477 22.9619 33.218 22.9619 31.7836C22.9619 30.3493 23.7815 29.1196 25.4212 29.1196C27.061 29.1196 27.8806 30.3494 27.8806 31.7836V32.1933ZM26.2409 31.2711L26.3434 31.1686L26.3428 31.1522C26.3334 31.006 26.2059 30.349 25.4212 30.349C24.6015 30.349 24.4991 31.0662 24.4991 31.1686L24.6015 31.2712L26.2409 31.2711ZM30.7498 32.8081C30.7498 33.013 30.8522 33.1156 31.0573 33.1156H31.9794L32.0819 33.218V34.2427L31.9794 34.3453H31.0573C30.135 34.3453 29.3154 33.9352 29.3154 32.8081V30.5536L29.2128 30.4511H28.4957L28.3932 30.3486V29.3239L28.4957 29.2214H29.2128L29.3154 29.1189V28.1967L29.4179 28.0942H30.6476L30.75 28.1968V29.1189L30.8526 29.2214H31.9798L32.0823 29.3239V30.3486L31.9798 30.4511H30.8526L30.75 30.5536V32.8081H30.7498ZM34.541 34.3453H33.3113L33.2087 34.2427V27.2749L33.3113 27.1724H34.541L34.6435 27.2749V34.2427L34.541 34.3453ZM37.3076 28.4021H36.0779L35.9753 28.2996V27.2749L36.0779 27.1724H37.3076L37.41 27.2749V28.2996L37.3076 28.4021ZM37.3076 34.3453H36.0779L35.9753 34.2427V29.3243L36.0779 29.2217H37.3076L37.41 29.3243V34.2427L37.3076 34.3453ZM42.1235 27.2749V28.2996L42.0209 28.4021H41.0988C40.8938 28.4021 40.7912 28.5046 40.7912 28.7096V29.1196L40.8938 29.2221H41.9185L42.0209 29.3247V30.3494L41.9185 30.4518H40.8938L40.7912 30.5543V34.2431L40.6888 34.3456H39.459L39.3566 34.2431V30.5543L39.254 30.4518H38.5369L38.4344 30.3494V29.3247L38.5369 29.2221H39.254L39.3566 29.1196V28.7096C39.3566 27.5945 40.1587 27.1813 41.0687 27.1726L42.0206 27.1724L42.1231 27.2749H42.1235ZM45.9151 34.4474L45.8759 34.5436C45.4778 35.5107 45.0498 36.0871 43.6603 36.0871H43.1478L43.0454 35.9846V34.9599L43.1478 34.8574H43.6603L43.7199 34.857C44.1807 34.8489 44.2791 34.7426 44.3775 34.4474V34.3449L42.7381 30.3486V29.3239L42.8407 29.2214H43.7628L43.8654 29.3239L45.0951 32.8081H45.1976L46.4273 29.3239L46.5298 29.2214H47.452L47.5544 29.3239V30.3486L45.9151 34.4474ZM20.6992 34.3453L20.5967 34.2427L20.5974 31.2736C20.5974 30.7615 20.396 30.3644 19.7777 30.3515C19.4598 30.3433 19.0961 30.3508 18.7075 30.3673L18.6494 30.4267L18.6502 34.2427L18.5476 34.3453H17.3183L17.2158 34.2427V29.2695L17.3183 29.1669L20.0849 29.1419C21.4709 29.1419 22.0318 30.0942 22.0318 31.169V34.2427L21.9293 34.3453H20.6992Z" fill="#014847"/>
</g>
<defs>
<clipPath id="clip0_1145_461">
<rect width="48" height="19.5938" fill="white" transform="translate(8 22)"/>
</clipPath>
</defs>
</svg>
